<svg width="20" height="20" viewBox="0 0 20 20" fill="none" xmlns="http://www.w3.org/2000/svg">
<g id="hugeicons:contact-01" clip-path="url(#clip0_3186_2408)">
<path id="Vector" d="M8.3729 11.8791C7.64709 12.3349 5.74543 13.2637 6.90396 14.4258C7.46938 14.9939 8.10058 15.3999 8.89216 15.3999H13.4155C14.2071 15.3999 14.8383 14.9939 15.4037 14.4258C16.5623 13.2637 14.6606 12.3349 13.9348 11.8802C13.1144 11.3588 12.1455 11.08 11.1538 11.08C10.1622 11.08 9.19332 11.3588 8.3729 11.8802M3.30769 4.59994H1M3.30769 9.99994H1M3.30769 15.3999H1M13.4617 6.75994C13.4617 7.33281 13.2185 7.88221 12.7857 8.28729C12.3529 8.69237 11.7659 8.91994 11.1538 8.91994C10.5418 8.91994 9.95476 8.69237 9.52196 8.28729C9.08915 7.88221 8.84601 7.33281 8.84601 6.75994C8.84601 6.18707 9.08915 5.63767 9.52196 5.23259C9.95476 4.82751 10.5418 4.59994 11.1538 4.59994C11.7659 4.59994 12.3529 4.82751 12.7857 5.23259C13.2185 5.63767 13.4617 6.18707 13.4617 6.75994ZM6.53846 0.999939H15.3077C17.3469 0.999939 19 2.61171 19 4.59994V15.3999C19 17.3882 17.3469 18.9999 15.3077 18.9999H6.53846C4.49926 18.9999 2.84615 17.3882 2.84615 15.3999V4.59994C2.84615 2.61171 4.49926 0.999939 6.53846 0.999939Z" stroke="white" stroke-linecap="round" stroke-linejoin="round"/>
</g>
<defs>
<clipPath id="clip0_3186_2408">
<rect width="20" height="20" fill="white"/>
</clipPath>
</defs>
</svg>
