<svg width="20" height="20" viewBox="0 0 20 20" fill="none" xmlns="http://www.w3.org/2000/svg">
<g id="teenyicons:home-solid" clip-path="url(#clip0_3186_2455)">
<path id="Vector" d="M10.39 1.14404C10.2813 1.05108 10.143 1 9.99998 1C9.85697 1 9.71866 1.05108 9.60998 1.14404L1 8.52402V17.2C1 17.6774 1.18964 18.1352 1.52721 18.4728C1.86477 18.8104 2.32261 19 2.8 19H7.59999C7.75911 19 7.91173 18.9368 8.02425 18.8243C8.13677 18.7117 8.19998 18.5591 8.19998 18.4V14.8C8.19998 14.3226 8.38963 13.8648 8.72719 13.5272C9.06475 13.1897 9.52259 13 9.99998 13C10.4774 13 10.9352 13.1897 11.2728 13.5272C11.6103 13.8648 11.8 14.3226 11.8 14.8V18.4C11.8 18.5591 11.8632 18.7117 11.9757 18.8243C12.0882 18.9368 12.2408 19 12.4 19H17.2C17.6774 19 18.1352 18.8104 18.4728 18.4728C18.8103 18.1352 19 17.6774 19 17.2V8.52402L10.39 1.14404Z" stroke="white"/>
</g>
<defs>
<clipPath id="clip0_3186_2455">
<rect width="20" height="20" fill="white"/>
</clipPath>
</defs>
</svg>
