<svg width="20" height="20" viewBox="0 0 20 20" fill="none" xmlns="http://www.w3.org/2000/svg">
<g id="list">
<path id="Subtract" fill-rule="evenodd" clip-rule="evenodd" d="M1 4C1 2.34315 2.34315 1 4 1H16C17.6569 1 19 2.34315 19 4V16C19 17.6569 17.6569 19 16 19H4C2.34315 19 1 17.6569 1 16V4ZM6.25732 5.49978C6.25732 5.08557 6.59311 4.74978 7.00732 4.74978H14.5073C14.9215 4.74978 15.2573 5.08557 15.2573 5.49978C15.2573 5.914 14.9215 6.24978 14.5073 6.24978H7.00732C6.59311 6.24978 6.25732 5.914 6.25732 5.49978ZM7.00732 9.25011C6.59311 9.25011 6.25732 9.58589 6.25732 10.0001C6.25732 10.4143 6.59311 10.7501 7.00732 10.7501H14.5073C14.9215 10.7501 15.2573 10.4143 15.2573 10.0001C15.2573 9.58589 14.9215 9.25011 14.5073 9.25011H7.00732ZM6.25732 14.4999C6.25732 14.0857 6.59311 13.7499 7.00732 13.7499H14.5073C14.9215 13.7499 15.2573 14.0857 15.2573 14.4999C15.2573 14.9141 14.9215 15.2499 14.5073 15.2499H7.00732C6.59311 15.2499 6.25732 14.9141 6.25732 14.4999ZM4.75 4.74978C4.33579 4.74978 4 5.08557 4 5.49978C4 5.914 4.33579 6.24978 4.75 6.24978H4.75883C5.17304 6.24978 5.50883 5.914 5.50883 5.49978C5.50883 5.08557 5.17304 4.74978 4.75883 4.74978H4.75ZM4 9.99984C4 9.58562 4.33579 9.24984 4.75 9.24984H4.75883C5.17304 9.24984 5.50883 9.58562 5.50883 9.99984C5.50883 10.4141 5.17304 10.7498 4.75883 10.7498H4.75C4.33579 10.7498 4 10.4141 4 9.99984ZM4.75 13.7499C4.33579 13.7499 4 14.0857 4 14.4999C4 14.9141 4.33579 15.2499 4.75 15.2499H4.75883C5.17304 15.2499 5.50883 14.9141 5.50883 14.4999C5.50883 14.0857 5.17304 13.7499 4.75883 13.7499H4.75Z" fill="white"/>
</g>
</svg>
