<?xml version="1.0" encoding="UTF-8" standalone="no"?><!DOCTYPE svg PUBLIC "-//W3C//DTD SVG 1.1//EN" "http://www.w3.org/Graphics/SVG/1.1/DTD/svg11.dtd"><svg width="100%" height="100%" viewBox="0 0 154 182" version="1.1" xmlns="http://www.w3.org/2000/svg" xmlns:xlink="http://www.w3.org/1999/xlink" xml:space="preserve" xmlns:serif="http://www.serif.com/" style="fill-rule:evenodd;clip-rule:evenodd;stroke-linecap:round;stroke-miterlimit:2;"><path d="M29.076,29.076c-26.345,26.345 -26.345,69.123 0,95.469l47.734,47.734l47.735,-47.734c26.345,-26.346 26.345,-69.124 0,-95.469c-26.346,-26.345 -69.124,-26.345 -95.469,0Z" style="fill:#5688be;stroke:#5688be;stroke-width:8.33px;"/><path d="M29.076,29.076c-26.345,26.345 -26.345,69.123 0,95.469c26.345,26.345 69.123,26.345 95.469,0c26.345,-26.346 26.345,-69.124 0,-95.469c-26.346,-26.345 -69.124,-26.345 -95.469,0Z" style="fill:#fff;stroke:#5688be;stroke-width:8.33px;stroke-linejoin:round;stroke-miterlimit:1.5;"/><path d="M120.42,97.406l-0.638,0.196c-2.21,0.589 -4.517,-0.638 -5.303,-2.799l-7.611,-21.015l11.785,-32.554l-15.565,-0.049l-4.96,13.601c-6.383,-10.41 -18.904,-15.615 -30.835,-15.615c-2.701,0 -5.352,0.246 -7.906,0.786c-25.09,5.205 -38.151,34.469 -25.287,56.663c8.542,14.756 27.395,21.067 43.157,16.223c6.528,-2.006 12.526,-5.926 17.041,-11.951c0.099,-0.098 0.148,-0.197 0.197,-0.295l0,0.049l0.589,-0.933l-5.303,-16.4c-3.241,8.053 -14.436,17.53 -23.028,16.155c-12.668,0 -22.882,-10.606 -22.243,-23.471c0.589,-11.44 10.704,-20.72 22.144,-21.113l0,-0.147c0,0.491 4.861,-0.541 9.968,1.522c5.107,2.062 11.539,7.021 14.927,17.48l6.236,18.658l0,0.098l0.147,0.344l2.75,7.218c0.54,1.424 1.129,2.75 1.767,3.928c2.75,6.776 10.017,10.459 17.088,8.691l5.008,-1.277l-4.125,-13.993Z" style="fill:url(#_Linear1);"/><defs><linearGradient id="_Linear1" x1="0" y1="0" x2="1" y2="0" gradientUnits="userSpaceOnUse" gradientTransform="matrix(95.4828,0,0,95.4828,29.0601,114.452)"><stop offset="0" style="stop-color:#7a5fff;stop-opacity:1"/><stop offset="1" style="stop-color:#00e824;stop-opacity:1"/></linearGradient></defs></svg>