<svg xmlns="http://www.w3.org/2000/svg" width="1600" height="2270" fill="none"><g clip-path="url(#a)"><mask id="b" width="1703" height="519" x="-39" y="1110" maskUnits="userSpaceOnUse" style="mask-type:alpha"><path fill="#D9D9D9" d="m-38.505 1569.74 1685.928-458.91 15.999 58.776-1685.928 458.91z" opacity=".6"/></mask><g stroke-opacity=".5" mask="url(#b)"><path stroke="url(#c)" d="M1136.94 1669.68c332.76-19.44 506.91-413.42 552.38-607.98 160.71-633.583-1000.425-531.479-1043.857-5.8-43.431 525.68-803.819-304.095-816.555 21.37-12.735 325.47 415.175 820.52 694.731 913.82 279.555 93.31 197.357-297.1 613.301-321.41Z"/><path stroke="url(#d)" d="M956.111 1077.94c175.269-10.38 267.159-217.935 291.199-320.417 84.93-333.738-526.669-279.487-549.778-2.623-23.109 276.86-423.219-159.82-430.072 11.59-6.853 171.411 218.298 431.95 365.492 480.97 147.195 49.02 104.077-156.55 323.159-169.52Z"/><path stroke="url(#e)" d="M1128.52 1641.22c325.14-18.82 495.07-403.72 539.39-593.81 156.66-619.047-977.876-519.914-1019.999-6.25-42.124 513.67-785.628-297.604-797.877 20.43-12.249 318.04 406.177 802.03 679.398 893.36 273.221 91.33 192.667-290.21 599.088-313.73Z"/><path stroke="url(#f)" d="M1120.03 1612.92c317.65-18.53 483.85-394.61 527.24-580.34 153.36-604.805-955.053-507.433-996.465-5.62-41.412 501.82-767.353-290.359-779.481 20.33-12.128 310.7 396.401 783.31 663.272 872.4 266.872 89.09 188.37-283.6 585.434-306.77Z"/><path stroke="url(#g)" d="M1111.11 1584.91c310.16-18.02 472.34-385.2 514.66-566.54 149.58-590.524-932.67-495.718-972.971-5.73-40.302 489.98-749.336-283.714-761.095 19.66-11.758 303.37 387.262 764.94 647.864 852 260.603 87.06 183.853-276.87 571.542-299.39Z"/><path stroke="url(#h)" d="M1102.62 1556.62c302.66-17.74 461.12-376.1 502.51-553.07 146.28-576.289-909.845-483.244-949.435-5.112C616.105 1476.57-75.365 721.973-87.003 1018c-11.638 296.02 377.485 746.22 631.738 831.04 254.253 84.82 179.554-270.25 557.885-292.42Z"/><path stroke="url(#i)" d="M1093.71 1528.6c295.16-17.22 449.6-366.68 489.92-539.263 142.5-562.002-887.458-471.524-925.938-5.225C619.212 1450.41-55.352 714.3-66.62 1003c-11.27 288.71 368.346 727.87 616.33 810.65 247.983 82.79 175.037-263.52 544-285.05Z"/><path stroke="url(#j)" d="M1085.21 1500.31c287.67-16.94 438.38-357.59 477.78-525.796 139.2-547.769-864.639-459.051-902.407-4.604-37.769 454.45-694.769-262.567-705.916 18.792-11.148 281.358 358.569 709.138 600.204 789.688 241.634 80.55 170.739-256.91 530.339-278.08Z"/><path stroke="url(#k)" d="M1076.3 1472.3c280.18-16.43 426.87-348.17 465.2-511.995 135.42-533.483-842.256-447.332-878.915-4.717-36.658 442.612-676.75-255.915-687.53 18.121-10.778 274.041 349.431 690.781 584.797 769.301 235.365 78.51 166.221-250.18 516.448-270.71Z"/><path stroke="url(#l)" d="M1069 1444.26c272.81-15.79 415.38-338.74 452.57-498.233 131.45-519.398-820.467-436.214-855.814-5.23C630.409 1371.78 6.591 691.101-3.689 957.945-13.97 1224.79 337.1 1630.87 566.34 1707.5c229.24 76.62 161.656-243.5 502.659-263.24Z"/><path stroke="url(#m)" d="M1060.14 1416.29c265.19-15.39 403.84-329.34 440.02-484.383 127.87-504.911-797.482-423.892-831.92-4.942-34.438 418.945-640.716-242.611-650.757 16.78-10.04 259.395 331.153 654.065 553.98 728.515 222.826 74.45 157.187-236.72 488.677-255.97Z"/><path stroke="url(#n)" d="M1051.59 1387.95c257.81-15 392.65-320.22 427.84-470.96 124.36-490.878-775.265-412.021-808.79-4.721-33.526 407.301-622.873-235.798-632.663 16.378-9.79 252.173 321.874 635.843 538.496 708.193 216.622 72.36 152.841-230.15 475.117-248.89Z"/><path stroke="url(#o)" d="M1042.73 1359.99c250.2-14.6 381.11-310.83 415.29-457.115 120.79-476.391-752.27-399.699-784.887-4.433-32.616 395.268-604.423-228.714-613.974 16.01-9.551 244.728 312.237 616.988 522.445 687.168 210.208 70.17 148.372-223.38 461.126-241.63Z"/><path stroke="url(#p)" d="M1034.18 1331.64c242.83-14.2 369.91-301.7 403.11-443.684 117.29-462.358-730.056-387.828-761.76-4.212-31.704 383.616-586.58-221.901-595.88 15.608-9.3 237.508 302.958 598.758 506.961 666.848 204.004 68.08 144.027-216.82 447.569-234.56Z"/><path stroke="url(#q)" d="M1025.26 1303.62c235.34-13.68 358.41-292.28 390.52-429.879 113.52-448.072-707.663-376.108-738.256-4.325C646.93 1241.2 108.961 654.168 100.03 884.354c-8.931 230.186 293.819 580.406 491.553 646.456 197.734 66.05 139.509-210.09 433.677-227.19Z"/><path stroke="url(#r)" d="M1016.77 1275.33c227.84-13.4 347.18-283.187 378.38-416.408 110.21-433.839-684.847-363.635-714.729-3.704-29.882 359.932-550.289-208.004-559.098 14.839-8.81 222.843 284.042 561.673 475.427 625.493 191.385 63.81 135.212-203.47 420.02-220.22Z"/><path stroke="url(#s)" d="M1007.85 1247.32c220.35-12.88 335.68-273.775 365.8-402.611 106.43-419.552-662.461-351.915-691.233-3.816-28.772 348.097-532.271-201.351-540.712 14.169-8.441 215.518 274.904 543.318 460.02 605.098 185.115 61.78 130.693-196.74 406.125-212.84Z"/><path stroke="url(#t)" d="M999.843 1218.57c212.737-12.49 324.137-264.381 353.247-388.767 102.86-405.064-639.472-339.593-667.334-3.528-27.863 336.065-513.822-194.267-522.024 13.8C155.53 1048.14 429 1364.54 607.701 1424.14c178.701 59.6 126.224-189.96 392.142-205.57Z"/><path stroke="url(#u)" d="M990.93 1190.56c205.24-11.98 312.62-254.969 340.66-374.969 99.08-390.778-617.086-327.873-643.838-3.64-26.753 324.229-495.804-187.615-503.638 13.129-7.833 200.75 256.129 506.11 428.561 563.68 172.432 57.56 121.707-183.24 378.255-198.2Z"/><path stroke="url(#v)" d="M982.435 1162.26c197.745-11.68 301.405-245.861 328.515-361.488 95.78-376.545-594.261-315.4-620.302-3.019-26.041 312.377-477.529-180.37-485.241 13.03-7.712 193.397 246.352 487.387 412.435 542.717 166.082 55.32 117.409-176.62 364.593-191.24Z"/><path stroke="url(#w)" d="M973.523 1134.25c190.257-11.17 289.887-236.45 315.927-347.691 92-362.258-571.875-303.68-596.806-3.131-24.93 300.552-459.511-173.718-466.854 12.36-7.343 186.077 237.213 469.032 397.026 522.322 159.813 53.3 112.892-169.89 350.707-183.86Z"/><path stroke="url(#x)" d="M964.967 1105.9c182.883-10.77 278.693-227.33 303.743-334.262 88.5-348.226-549.652-291.809-573.671-2.911-24.018 288.903-441.669-166.905-448.761 11.958-7.091 178.864 227.935 450.805 381.543 502.005 153.609 51.2 108.547-163.32 337.146-176.79Z"/></g></g><g clip-path="url(#y)"><mask id="z" width="1701" height="512" x="-23" y="1169" maskUnits="userSpaceOnUse" style="mask-type:alpha"><path fill="#D9D9D9" d="m-22.549 1628.36 1685.928-458.91 14.32 52.61L-8.229 1680.968z" opacity=".4"/></mask><g stroke-opacity=".5" mask="url(#z)"><path stroke="url(#A)" d="M1136.94 1669.68c332.76-19.44 506.91-413.42 552.38-607.98 160.71-633.583-1000.425-531.479-1043.857-5.8-43.431 525.68-803.819-304.095-816.555 21.37-12.735 325.47 415.175 820.52 694.731 913.82 279.555 93.31 197.357-297.1 613.301-321.41Z"/><path stroke="url(#B)" d="M956.111 1077.94c175.269-10.38 267.159-217.935 291.199-320.417 84.93-333.738-526.669-279.487-549.778-2.623-23.109 276.86-423.219-159.82-430.072 11.59-6.853 171.411 218.298 431.95 365.492 480.97 147.195 49.02 104.077-156.55 323.159-169.52Z"/><path stroke="url(#C)" d="M1128.52 1641.22c325.14-18.82 495.07-403.72 539.39-593.81 156.66-619.047-977.876-519.914-1019.999-6.25-42.124 513.67-785.628-297.604-797.877 20.43-12.249 318.04 406.177 802.03 679.398 893.36 273.221 91.33 192.667-290.21 599.088-313.73Z"/><path stroke="url(#D)" d="M1120.03 1612.92c317.65-18.53 483.85-394.61 527.24-580.34 153.36-604.805-955.053-507.433-996.465-5.62-41.412 501.82-767.353-290.359-779.481 20.33-12.128 310.7 396.401 783.31 663.272 872.4 266.872 89.09 188.37-283.6 585.434-306.77Z"/><path stroke="url(#E)" d="M1111.11 1584.91c310.16-18.02 472.34-385.2 514.66-566.54 149.58-590.524-932.67-495.718-972.971-5.73-40.302 489.98-749.336-283.714-761.095 19.66-11.758 303.37 387.262 764.94 647.864 852 260.603 87.06 183.853-276.87 571.542-299.39Z"/><path stroke="url(#F)" d="M1102.62 1556.62c302.66-17.74 461.12-376.1 502.51-553.07 146.28-576.289-909.845-483.244-949.435-5.112C616.105 1476.57-75.365 721.973-87.003 1018c-11.638 296.02 377.485 746.22 631.738 831.04 254.253 84.82 179.554-270.25 557.885-292.42Z"/><path stroke="url(#G)" d="M1093.71 1528.6c295.16-17.22 449.6-366.68 489.92-539.263 142.5-562.002-887.458-471.524-925.938-5.225C619.212 1450.41-55.352 714.3-66.62 1003c-11.27 288.71 368.346 727.87 616.33 810.65 247.983 82.79 175.037-263.52 544-285.05Z"/><path stroke="url(#H)" d="M1085.21 1500.31c287.67-16.94 438.38-357.59 477.78-525.796 139.2-547.769-864.639-459.051-902.407-4.604-37.769 454.45-694.769-262.567-705.916 18.792-11.148 281.358 358.569 709.138 600.204 789.688 241.634 80.55 170.739-256.91 530.339-278.08Z"/><path stroke="url(#I)" d="M1076.3 1472.3c280.18-16.43 426.87-348.17 465.2-511.995 135.42-533.483-842.256-447.332-878.915-4.717-36.658 442.612-676.75-255.915-687.53 18.121-10.778 274.041 349.431 690.781 584.797 769.301 235.365 78.51 166.221-250.18 516.448-270.71Z"/><path stroke="url(#J)" d="M1069 1444.26c272.81-15.79 415.38-338.74 452.57-498.233 131.45-519.398-820.467-436.214-855.814-5.23C630.409 1371.78 6.591 691.101-3.689 957.945-13.97 1224.79 337.1 1630.87 566.34 1707.5c229.24 76.62 161.656-243.5 502.659-263.24Z"/><path stroke="url(#K)" d="M1060.14 1416.29c265.19-15.39 403.84-329.34 440.02-484.383 127.87-504.911-797.482-423.892-831.92-4.942-34.438 418.945-640.716-242.611-650.757 16.78-10.04 259.395 331.153 654.065 553.98 728.515 222.826 74.45 157.187-236.72 488.677-255.97Z"/><path stroke="url(#L)" d="M1051.59 1387.95c257.81-15 392.65-320.22 427.84-470.96 124.36-490.878-775.265-412.021-808.79-4.721-33.526 407.301-622.873-235.798-632.663 16.378-9.79 252.173 321.874 635.843 538.496 708.193 216.622 72.36 152.841-230.15 475.117-248.89Z"/><path stroke="url(#M)" d="M1042.73 1359.99c250.2-14.6 381.11-310.83 415.29-457.115 120.79-476.391-752.27-399.699-784.887-4.433-32.616 395.268-604.423-228.714-613.974 16.01-9.551 244.728 312.237 616.988 522.445 687.168 210.208 70.17 148.372-223.38 461.126-241.63Z"/><path stroke="url(#N)" d="M1034.18 1331.64c242.83-14.2 369.91-301.7 403.11-443.684 117.29-462.358-730.056-387.828-761.76-4.212-31.704 383.616-586.58-221.901-595.88 15.608-9.3 237.508 302.958 598.758 506.961 666.848 204.004 68.08 144.027-216.82 447.569-234.56Z"/><path stroke="url(#O)" d="M1025.26 1303.62c235.34-13.68 358.41-292.28 390.52-429.879 113.52-448.072-707.663-376.108-738.256-4.325C646.93 1241.2 108.961 654.168 100.03 884.354c-8.931 230.186 293.819 580.406 491.553 646.456 197.734 66.05 139.509-210.09 433.677-227.19Z"/><path stroke="url(#P)" d="M1016.77 1275.33c227.84-13.4 347.18-283.187 378.38-416.408 110.21-433.839-684.847-363.635-714.729-3.704-29.882 359.932-550.289-208.004-559.098 14.839-8.81 222.843 284.042 561.673 475.427 625.493 191.385 63.81 135.212-203.47 420.02-220.22Z"/><path stroke="url(#Q)" d="M1007.85 1247.32c220.35-12.88 335.68-273.775 365.8-402.611 106.43-419.552-662.461-351.915-691.233-3.816-28.772 348.097-532.271-201.351-540.712 14.169-8.441 215.518 274.904 543.318 460.02 605.098 185.115 61.78 130.693-196.74 406.125-212.84Z"/><path stroke="url(#R)" d="M999.843 1218.57c212.737-12.49 324.137-264.381 353.247-388.767 102.86-405.064-639.472-339.593-667.334-3.528-27.863 336.065-513.822-194.267-522.024 13.8C155.53 1048.14 429 1364.54 607.701 1424.14c178.701 59.6 126.224-189.96 392.142-205.57Z"/><path stroke="url(#S)" d="M990.93 1190.56c205.24-11.98 312.62-254.969 340.66-374.969 99.08-390.778-617.086-327.873-643.838-3.64-26.753 324.229-495.804-187.615-503.638 13.129-7.833 200.75 256.129 506.11 428.561 563.68 172.432 57.56 121.707-183.24 378.255-198.2Z"/><path stroke="url(#T)" d="M982.435 1162.26c197.745-11.68 301.405-245.861 328.515-361.488 95.78-376.545-594.261-315.4-620.302-3.019-26.041 312.377-477.529-180.37-485.241 13.03-7.712 193.397 246.352 487.387 412.435 542.717 166.082 55.32 117.409-176.62 364.593-191.24Z"/><path stroke="url(#U)" d="M973.523 1134.25c190.257-11.17 289.887-236.45 315.927-347.691 92-362.258-571.875-303.68-596.806-3.131-24.93 300.552-459.511-173.718-466.854 12.36-7.343 186.077 237.213 469.032 397.026 522.322 159.813 53.3 112.892-169.89 350.707-183.86Z"/><path stroke="url(#V)" d="M964.967 1105.9c182.883-10.77 278.693-227.33 303.743-334.262 88.5-348.226-549.652-291.809-573.671-2.911-24.018 288.903-441.669-166.905-448.761 11.958-7.091 178.864 227.935 450.805 381.543 502.005 153.609 51.2 108.547-163.32 337.146-176.79Z"/></g></g><g clip-path="url(#W)"><mask id="X" width="1706" height="529" x="-58" y="1041" maskUnits="userSpaceOnUse" style="mask-type:alpha"><path fill="#D9D9D9" d="m-57.383 1500.39 1685.928-458.91 18.9 69.434-1685.928 458.91z" opacity=".8"/></mask><g stroke-opacity=".5" mask="url(#X)"><path stroke="url(#Y)" d="M1136.94 1669.68c332.76-19.44 506.91-413.42 552.38-607.98 160.71-633.583-1000.425-531.479-1043.857-5.8-43.431 525.68-803.819-304.095-816.555 21.37-12.735 325.47 415.175 820.52 694.731 913.82 279.555 93.31 197.357-297.1 613.301-321.41Z"/><path stroke="url(#Z)" d="M956.111 1077.94c175.269-10.38 267.159-217.935 291.199-320.417 84.93-333.738-526.669-279.487-549.778-2.623-23.109 276.86-423.219-159.82-430.072 11.59-6.853 171.411 218.298 431.95 365.492 480.97 147.195 49.02 104.077-156.55 323.159-169.52Z"/><path stroke="url(#aa)" d="M1128.52 1641.22c325.14-18.82 495.07-403.72 539.39-593.81 156.66-619.047-977.876-519.914-1019.999-6.25-42.124 513.67-785.628-297.604-797.877 20.43-12.249 318.04 406.177 802.03 679.398 893.36 273.221 91.33 192.667-290.21 599.088-313.73Z"/><path stroke="url(#ab)" d="M1120.03 1612.92c317.65-18.53 483.85-394.61 527.24-580.34 153.36-604.805-955.053-507.433-996.465-5.62-41.412 501.82-767.353-290.359-779.481 20.33-12.128 310.7 396.401 783.31 663.272 872.4 266.872 89.09 188.37-283.6 585.434-306.77Z"/><path stroke="url(#ac)" d="M1111.11 1584.91c310.16-18.02 472.34-385.2 514.66-566.54 149.58-590.524-932.67-495.718-972.971-5.73-40.302 489.98-749.336-283.714-761.095 19.66-11.758 303.37 387.262 764.94 647.864 852 260.603 87.06 183.853-276.87 571.542-299.39Z"/><path stroke="url(#ad)" d="M1102.62 1556.62c302.66-17.74 461.12-376.1 502.51-553.07 146.28-576.289-909.845-483.244-949.435-5.112C616.105 1476.57-75.365 721.973-87.003 1018c-11.638 296.02 377.485 746.22 631.738 831.04 254.253 84.82 179.554-270.25 557.885-292.42Z"/><path stroke="url(#ae)" d="M1093.71 1528.6c295.16-17.22 449.6-366.68 489.92-539.263 142.5-562.002-887.458-471.524-925.938-5.225C619.212 1450.41-55.352 714.3-66.62 1003c-11.27 288.71 368.346 727.87 616.33 810.65 247.983 82.79 175.037-263.52 544-285.05Z"/><path stroke="url(#af)" d="M1085.21 1500.31c287.67-16.94 438.38-357.59 477.78-525.796 139.2-547.769-864.639-459.051-902.407-4.604-37.769 454.45-694.769-262.567-705.916 18.792-11.148 281.358 358.569 709.138 600.204 789.688 241.634 80.55 170.739-256.91 530.339-278.08Z"/><path stroke="url(#ag)" d="M1076.3 1472.3c280.18-16.43 426.87-348.17 465.2-511.995 135.42-533.483-842.256-447.332-878.915-4.717-36.658 442.612-676.75-255.915-687.53 18.121-10.778 274.041 349.431 690.781 584.797 769.301 235.365 78.51 166.221-250.18 516.448-270.71Z"/><path stroke="url(#ah)" d="M1069 1444.26c272.81-15.79 415.38-338.74 452.57-498.233 131.45-519.398-820.467-436.214-855.814-5.23C630.409 1371.78 6.591 691.101-3.689 957.945-13.97 1224.79 337.1 1630.87 566.34 1707.5c229.24 76.62 161.656-243.5 502.659-263.24Z"/><path stroke="url(#ai)" d="M1060.14 1416.29c265.19-15.39 403.84-329.34 440.02-484.383 127.87-504.911-797.482-423.892-831.92-4.942-34.438 418.945-640.716-242.611-650.757 16.78-10.04 259.395 331.153 654.065 553.98 728.515 222.826 74.45 157.187-236.72 488.677-255.97Z"/><path stroke="url(#aj)" d="M1051.59 1387.95c257.81-15 392.65-320.22 427.84-470.96 124.36-490.878-775.265-412.021-808.79-4.721-33.526 407.301-622.873-235.798-632.663 16.378-9.79 252.173 321.874 635.843 538.496 708.193 216.622 72.36 152.841-230.15 475.117-248.89Z"/><path stroke="url(#ak)" d="M1042.73 1359.99c250.2-14.6 381.11-310.83 415.29-457.115 120.79-476.391-752.27-399.699-784.887-4.433-32.616 395.268-604.423-228.714-613.974 16.01-9.551 244.728 312.237 616.988 522.445 687.168 210.208 70.17 148.372-223.38 461.126-241.63Z"/><path stroke="url(#al)" d="M1034.18 1331.64c242.83-14.2 369.91-301.7 403.11-443.684 117.29-462.358-730.056-387.828-761.76-4.212-31.704 383.616-586.58-221.901-595.88 15.608-9.3 237.508 302.958 598.758 506.961 666.848 204.004 68.08 144.027-216.82 447.569-234.56Z"/><path stroke="url(#am)" d="M1025.26 1303.62c235.34-13.68 358.41-292.28 390.52-429.879 113.52-448.072-707.663-376.108-738.256-4.325C646.93 1241.2 108.961 654.168 100.03 884.354c-8.931 230.186 293.819 580.406 491.553 646.456 197.734 66.05 139.509-210.09 433.677-227.19Z"/><path stroke="url(#an)" d="M1016.77 1275.33c227.84-13.4 347.18-283.187 378.38-416.408 110.21-433.839-684.847-363.635-714.729-3.704-29.882 359.932-550.289-208.004-559.098 14.839-8.81 222.843 284.042 561.673 475.427 625.493 191.385 63.81 135.212-203.47 420.02-220.22Z"/><path stroke="url(#ao)" d="M1007.85 1247.32c220.35-12.88 335.68-273.775 365.8-402.611 106.43-419.552-662.461-351.915-691.233-3.816-28.772 348.097-532.271-201.351-540.712 14.169-8.441 215.518 274.904 543.318 460.02 605.098 185.115 61.78 130.693-196.74 406.125-212.84Z"/><path stroke="url(#ap)" d="M999.843 1218.57c212.737-12.49 324.137-264.381 353.247-388.767 102.86-405.064-639.472-339.593-667.334-3.528-27.863 336.065-513.822-194.267-522.024 13.8C155.53 1048.14 429 1364.54 607.701 1424.14c178.701 59.6 126.224-189.96 392.142-205.57Z"/><path stroke="url(#aq)" d="M990.93 1190.56c205.24-11.98 312.62-254.969 340.66-374.969 99.08-390.778-617.086-327.873-643.838-3.64-26.753 324.229-495.804-187.615-503.638 13.129-7.833 200.75 256.129 506.11 428.561 563.68 172.432 57.56 121.707-183.24 378.255-198.2Z"/><path stroke="url(#ar)" d="M982.435 1162.26c197.745-11.68 301.405-245.861 328.515-361.488 95.78-376.545-594.261-315.4-620.302-3.019-26.041 312.377-477.529-180.37-485.241 13.03-7.712 193.397 246.352 487.387 412.435 542.717 166.082 55.32 117.409-176.62 364.593-191.24Z"/><path stroke="url(#as)" d="M973.523 1134.25c190.257-11.17 289.887-236.45 315.927-347.691 92-362.258-571.875-303.68-596.806-3.131-24.93 300.552-459.511-173.718-466.854 12.36-7.343 186.077 237.213 469.032 397.026 522.322 159.813 53.3 112.892-169.89 350.707-183.86Z"/><path stroke="url(#at)" d="M964.967 1105.9c182.883-10.77 278.693-227.33 303.743-334.262 88.5-348.226-549.652-291.809-573.671-2.911-24.018 288.903-441.669-166.905-448.761 11.958-7.091 178.864 227.935 450.805 381.543 502.005 153.609 51.2 108.547-163.32 337.146-176.79Z"/></g></g><g clip-path="url(#au)"><mask id="av" width="1958" height="1147" x="-221" y="349" maskUnits="userSpaceOnUse" style="mask-type:alpha"><path fill="#D9D9D9" d="m-220.366 832.687 1776.32-483.514 180.468 663-1776.32 483.515z"/></mask><g stroke-opacity=".5" mask="url(#av)"><path stroke="url(#aw)" d="M1136.94 1669.68c332.76-19.44 506.91-413.42 552.38-607.98 160.71-633.583-1000.425-531.479-1043.857-5.8-43.431 525.68-803.819-304.095-816.555 21.37-12.735 325.47 415.175 820.52 694.731 913.82 279.555 93.31 197.357-297.1 613.301-321.41Z"/><path stroke="url(#ax)" d="M956.111 1077.94c175.269-10.38 267.159-217.935 291.199-320.417 84.93-333.738-526.669-279.487-549.778-2.623-23.109 276.86-423.219-159.82-430.072 11.59-6.853 171.411 218.298 431.95 365.492 480.97 147.195 49.02 104.077-156.55 323.159-169.52Z"/><path stroke="url(#ay)" d="M1128.52 1641.22c325.14-18.82 495.07-403.72 539.39-593.81 156.66-619.047-977.876-519.914-1019.999-6.25-42.124 513.67-785.628-297.604-797.877 20.43-12.249 318.04 406.177 802.03 679.398 893.36 273.221 91.33 192.667-290.21 599.088-313.73Z"/><path stroke="url(#az)" d="M1120.03 1612.92c317.65-18.53 483.85-394.61 527.24-580.34 153.36-604.805-955.053-507.433-996.465-5.62-41.412 501.82-767.353-290.359-779.481 20.33-12.128 310.7 396.401 783.31 663.272 872.4 266.872 89.09 188.37-283.6 585.434-306.77Z"/><path stroke="url(#aA)" d="M1111.11 1584.91c310.16-18.02 472.34-385.2 514.66-566.54 149.58-590.524-932.67-495.718-972.971-5.73-40.302 489.98-749.336-283.714-761.095 19.66-11.758 303.37 387.262 764.94 647.864 852 260.603 87.06 183.853-276.87 571.542-299.39Z"/><path stroke="url(#aB)" d="M1102.62 1556.62c302.66-17.74 461.12-376.1 502.51-553.07 146.28-576.289-909.845-483.244-949.435-5.112C616.105 1476.57-75.365 721.973-87.003 1018c-11.638 296.02 377.485 746.22 631.738 831.04 254.253 84.82 179.554-270.25 557.885-292.42Z"/><path stroke="url(#aC)" d="M1093.71 1528.6c295.16-17.22 449.6-366.68 489.92-539.263 142.5-562.002-887.458-471.524-925.938-5.225C619.212 1450.41-55.352 714.3-66.62 1003c-11.27 288.71 368.346 727.87 616.33 810.65 247.983 82.79 175.037-263.52 544-285.05Z"/><path stroke="url(#aD)" d="M1085.21 1500.31c287.67-16.94 438.38-357.59 477.78-525.796 139.2-547.769-864.639-459.051-902.407-4.604-37.769 454.45-694.769-262.567-705.916 18.792-11.148 281.358 358.569 709.138 600.204 789.688 241.634 80.55 170.739-256.91 530.339-278.08Z"/><path stroke="url(#aE)" d="M1076.3 1472.3c280.18-16.43 426.87-348.17 465.2-511.995 135.42-533.483-842.256-447.332-878.915-4.717-36.658 442.612-676.75-255.915-687.53 18.121-10.778 274.041 349.431 690.781 584.797 769.301 235.365 78.51 166.221-250.18 516.448-270.71Z"/><path stroke="url(#aF)" d="M1069 1444.26c272.81-15.79 415.38-338.74 452.57-498.233 131.45-519.398-820.467-436.214-855.814-5.23C630.409 1371.78 6.591 691.101-3.689 957.945-13.97 1224.79 337.1 1630.87 566.34 1707.5c229.24 76.62 161.656-243.5 502.659-263.24Z"/><path stroke="url(#aG)" d="M1060.14 1416.29c265.19-15.39 403.84-329.34 440.02-484.383 127.87-504.911-797.482-423.892-831.92-4.942-34.438 418.945-640.716-242.611-650.757 16.78-10.04 259.395 331.153 654.065 553.98 728.515 222.826 74.45 157.187-236.72 488.677-255.97Z"/><path stroke="url(#aH)" d="M1051.59 1387.95c257.81-15 392.65-320.22 427.84-470.96 124.36-490.878-775.265-412.021-808.79-4.721-33.526 407.301-622.873-235.798-632.663 16.378-9.79 252.173 321.874 635.843 538.496 708.193 216.622 72.36 152.841-230.15 475.117-248.89Z"/><path stroke="url(#aI)" d="M1042.73 1359.99c250.2-14.6 381.11-310.83 415.29-457.115 120.79-476.391-752.27-399.699-784.887-4.433-32.616 395.268-604.423-228.714-613.974 16.01-9.551 244.728 312.237 616.988 522.445 687.168 210.208 70.17 148.372-223.38 461.126-241.63Z"/><path stroke="url(#aJ)" d="M1034.18 1331.64c242.83-14.2 369.91-301.7 403.11-443.684 117.29-462.358-730.056-387.828-761.76-4.212-31.704 383.616-586.58-221.901-595.88 15.608-9.3 237.508 302.958 598.758 506.961 666.848 204.004 68.08 144.027-216.82 447.569-234.56Z"/><path stroke="url(#aK)" d="M1025.26 1303.62c235.34-13.68 358.41-292.28 390.52-429.879 113.52-448.072-707.663-376.108-738.256-4.325C646.93 1241.2 108.961 654.168 100.03 884.354c-8.931 230.186 293.819 580.406 491.553 646.456 197.734 66.05 139.509-210.09 433.677-227.19Z"/><path stroke="url(#aL)" d="M1016.77 1275.33c227.84-13.4 347.18-283.187 378.38-416.408 110.21-433.839-684.847-363.635-714.729-3.704-29.882 359.932-550.289-208.004-559.098 14.839-8.81 222.843 284.042 561.673 475.427 625.493 191.385 63.81 135.212-203.47 420.02-220.22Z"/><path stroke="url(#aM)" d="M1007.85 1247.32c220.35-12.88 335.68-273.775 365.8-402.611 106.43-419.552-662.461-351.915-691.233-3.816-28.772 348.097-532.271-201.351-540.712 14.169-8.441 215.518 274.904 543.318 460.02 605.098 185.115 61.78 130.693-196.74 406.125-212.84Z"/><path stroke="url(#aN)" d="M999.843 1218.57c212.737-12.49 324.137-264.381 353.247-388.767 102.86-405.064-639.472-339.593-667.334-3.528-27.863 336.065-513.822-194.267-522.024 13.8C155.53 1048.14 429 1364.54 607.701 1424.14c178.701 59.6 126.224-189.96 392.142-205.57Z"/><path stroke="url(#aO)" d="M990.93 1190.56c205.24-11.98 312.62-254.969 340.66-374.969 99.08-390.778-617.086-327.873-643.838-3.64-26.753 324.229-495.804-187.615-503.638 13.129-7.833 200.75 256.129 506.11 428.561 563.68 172.432 57.56 121.707-183.24 378.255-198.2Z"/><path stroke="url(#aP)" d="M982.435 1162.26c197.745-11.68 301.405-245.861 328.515-361.488 95.78-376.545-594.261-315.4-620.302-3.019-26.041 312.377-477.529-180.37-485.241 13.03-7.712 193.397 246.352 487.387 412.435 542.717 166.082 55.32 117.409-176.62 364.593-191.24Z"/><path stroke="url(#aQ)" d="M973.523 1134.25c190.257-11.17 289.887-236.45 315.927-347.691 92-362.258-571.875-303.68-596.806-3.131-24.93 300.552-459.511-173.718-466.854 12.36-7.343 186.077 237.213 469.032 397.026 522.322 159.813 53.3 112.892-169.89 350.707-183.86Z"/><path stroke="url(#aR)" d="M964.967 1105.9c182.883-10.77 278.693-227.33 303.743-334.262 88.5-348.226-549.652-291.809-573.671-2.911-24.018 288.903-441.669-166.905-448.761 11.958-7.091 178.864 227.935 450.805 381.543 502.005 153.609 51.2 108.547-163.32 337.146-176.79Z"/></g></g><g clip-path="url(#aS)"><mask id="aT" width="1613" height="492" x="42" y="1232" maskUnits="userSpaceOnUse" style="mask-type:alpha"><path fill="#D9D9D9" d="m42.528 1667.04 1596.444-434.552 15.376 56.486L57.903 1723.526z" opacity=".2"/></mask><g stroke-opacity=".5" mask="url(#aT)"><path stroke="url(#aU)" d="M1136.94 1669.68c332.76-19.44 506.91-413.42 552.38-607.98 160.71-633.583-1000.425-531.479-1043.857-5.8-43.431 525.68-803.819-304.095-816.555 21.37-12.735 325.47 415.175 820.52 694.731 913.82 279.555 93.31 197.357-297.1 613.301-321.41Z"/><path stroke="url(#aV)" d="M956.111 1077.94c175.269-10.38 267.159-217.935 291.199-320.417 84.93-333.738-526.669-279.487-549.778-2.623-23.109 276.86-423.219-159.82-430.072 11.59-6.853 171.411 218.298 431.95 365.492 480.97 147.195 49.02 104.077-156.55 323.159-169.52Z"/><path stroke="url(#aW)" d="M1128.52 1641.22c325.14-18.82 495.07-403.72 539.39-593.81 156.66-619.047-977.876-519.914-1019.999-6.25-42.124 513.67-785.628-297.604-797.877 20.43-12.249 318.04 406.177 802.03 679.398 893.36 273.221 91.33 192.667-290.21 599.088-313.73Z"/><path stroke="url(#aX)" d="M1120.03 1612.92c317.65-18.53 483.85-394.61 527.24-580.34 153.36-604.805-955.053-507.433-996.465-5.62-41.412 501.82-767.353-290.359-779.481 20.33-12.128 310.7 396.401 783.31 663.272 872.4 266.872 89.09 188.37-283.6 585.434-306.77Z"/><path stroke="url(#aY)" d="M1111.11 1584.91c310.16-18.02 472.34-385.2 514.66-566.54 149.58-590.524-932.67-495.718-972.971-5.73-40.302 489.98-749.336-283.714-761.095 19.66-11.758 303.37 387.262 764.94 647.864 852 260.603 87.06 183.853-276.87 571.542-299.39Z"/><path stroke="url(#aZ)" d="M1102.62 1556.62c302.66-17.74 461.12-376.1 502.51-553.07 146.28-576.289-909.845-483.244-949.435-5.112C616.105 1476.57-75.365 721.973-87.003 1018c-11.638 296.02 377.485 746.22 631.738 831.04 254.253 84.82 179.554-270.25 557.885-292.42Z"/><path stroke="url(#ba)" d="M1093.71 1528.6c295.16-17.22 449.6-366.68 489.92-539.263 142.5-562.002-887.458-471.524-925.938-5.225C619.212 1450.41-55.352 714.3-66.62 1003c-11.27 288.71 368.346 727.87 616.33 810.65 247.983 82.79 175.037-263.52 544-285.05Z"/><path stroke="url(#bb)" d="M1085.21 1500.31c287.67-16.94 438.38-357.59 477.78-525.796 139.2-547.769-864.639-459.051-902.407-4.604-37.769 454.45-694.769-262.567-705.916 18.792-11.148 281.358 358.569 709.138 600.204 789.688 241.634 80.55 170.739-256.91 530.339-278.08Z"/><path stroke="url(#bc)" d="M1076.3 1472.3c280.18-16.43 426.87-348.17 465.2-511.995 135.42-533.483-842.256-447.332-878.915-4.717-36.658 442.612-676.75-255.915-687.53 18.121-10.778 274.041 349.431 690.781 584.797 769.301 235.365 78.51 166.221-250.18 516.448-270.71Z"/><path stroke="url(#bd)" d="M1069 1444.26c272.81-15.79 415.38-338.74 452.57-498.233 131.45-519.398-820.467-436.214-855.814-5.23C630.409 1371.78 6.591 691.101-3.689 957.945-13.97 1224.79 337.1 1630.87 566.34 1707.5c229.24 76.62 161.656-243.5 502.659-263.24Z"/><path stroke="url(#be)" d="M1060.14 1416.29c265.19-15.39 403.84-329.34 440.02-484.383 127.87-504.911-797.482-423.892-831.92-4.942-34.438 418.945-640.716-242.611-650.757 16.78-10.04 259.395 331.153 654.065 553.98 728.515 222.826 74.45 157.187-236.72 488.677-255.97Z"/><path stroke="url(#bf)" d="M1051.59 1387.95c257.81-15 392.65-320.22 427.84-470.96 124.36-490.878-775.265-412.021-808.79-4.721-33.526 407.301-622.873-235.798-632.663 16.378-9.79 252.173 321.874 635.843 538.496 708.193 216.622 72.36 152.841-230.15 475.117-248.89Z"/><path stroke="url(#bg)" d="M1042.73 1359.99c250.2-14.6 381.11-310.83 415.29-457.115 120.79-476.391-752.27-399.699-784.887-4.433-32.616 395.268-604.423-228.714-613.974 16.01-9.551 244.728 312.237 616.988 522.445 687.168 210.208 70.17 148.372-223.38 461.126-241.63Z"/><path stroke="url(#bh)" d="M1034.18 1331.64c242.83-14.2 369.91-301.7 403.11-443.684 117.29-462.358-730.056-387.828-761.76-4.212-31.704 383.616-586.58-221.901-595.88 15.608-9.3 237.508 302.958 598.758 506.961 666.848 204.004 68.08 144.027-216.82 447.569-234.56Z"/><path stroke="url(#bi)" d="M1025.26 1303.62c235.34-13.68 358.41-292.28 390.52-429.879 113.52-448.072-707.663-376.108-738.256-4.325C646.93 1241.2 108.961 654.168 100.03 884.354c-8.931 230.186 293.819 580.406 491.553 646.456 197.734 66.05 139.509-210.09 433.677-227.19Z"/><path stroke="url(#bj)" d="M1016.77 1275.33c227.84-13.4 347.18-283.187 378.38-416.408 110.21-433.839-684.847-363.635-714.729-3.704-29.882 359.932-550.289-208.004-559.098 14.839-8.81 222.843 284.042 561.673 475.427 625.493 191.385 63.81 135.212-203.47 420.02-220.22Z"/><path stroke="url(#bk)" d="M1007.85 1247.32c220.35-12.88 335.68-273.775 365.8-402.611 106.43-419.552-662.461-351.915-691.233-3.816-28.772 348.097-532.271-201.351-540.712 14.169-8.441 215.518 274.904 543.318 460.02 605.098 185.115 61.78 130.693-196.74 406.125-212.84Z"/><path stroke="url(#bl)" d="M999.843 1218.57c212.737-12.49 324.137-264.381 353.247-388.767 102.86-405.064-639.472-339.593-667.334-3.528-27.863 336.065-513.822-194.267-522.024 13.8C155.53 1048.14 429 1364.54 607.701 1424.14c178.701 59.6 126.224-189.96 392.142-205.57Z"/><path stroke="url(#bm)" d="M990.93 1190.56c205.24-11.98 312.62-254.969 340.66-374.969 99.08-390.778-617.086-327.873-643.838-3.64-26.753 324.229-495.804-187.615-503.638 13.129-7.833 200.75 256.129 506.11 428.561 563.68 172.432 57.56 121.707-183.24 378.255-198.2Z"/><path stroke="url(#bn)" d="M982.435 1162.26c197.745-11.68 301.405-245.861 328.515-361.488 95.78-376.545-594.261-315.4-620.302-3.019-26.041 312.377-477.529-180.37-485.241 13.03-7.712 193.397 246.352 487.387 412.435 542.717 166.082 55.32 117.409-176.62 364.593-191.24Z"/><path stroke="url(#bo)" d="M973.523 1134.25c190.257-11.17 289.887-236.45 315.927-347.691 92-362.258-571.875-303.68-596.806-3.131-24.93 300.552-459.511-173.718-466.854 12.36-7.343 186.077 237.213 469.032 397.026 522.322 159.813 53.3 112.892-169.89 350.707-183.86Z"/><path stroke="url(#bp)" d="M964.967 1105.9c182.883-10.77 278.693-227.33 303.743-334.262 88.5-348.226-549.652-291.809-573.671-2.911-24.018 288.903-441.669-166.905-448.761 11.958-7.091 178.864 227.935 450.805 381.543 502.005 153.609 51.2 108.547-163.32 337.146-176.79Z"/></g></g><g clip-path="url(#bq)"><mask id="br" width="1550" height="483" x="115" y="1290" maskUnits="userSpaceOnUse" style="mask-type:alpha"><path fill="#D9D9D9" d="m115.279 1707.78 1531.661-416.918 17.633 64.778-1531.661 416.918z" opacity=".1"/></mask><g stroke-opacity=".5" mask="url(#br)"><path stroke="url(#bs)" d="M1136.94 1669.68c332.76-19.44 506.91-413.42 552.38-607.98 160.71-633.583-1000.425-531.479-1043.857-5.8-43.431 525.68-803.819-304.095-816.555 21.37-12.735 325.47 415.175 820.52 694.731 913.82 279.555 93.31 197.357-297.1 613.301-321.41Z"/><path stroke="url(#bt)" d="M1128.52 1641.22c325.14-18.82 495.07-403.72 539.39-593.81 156.66-619.047-977.876-519.914-1019.999-6.25-42.124 513.67-785.628-297.604-797.877 20.43-12.249 318.04 406.177 802.03 679.398 893.36 273.221 91.33 192.667-290.21 599.088-313.73Z"/><path stroke="url(#bu)" d="M1120.03 1612.92c317.65-18.53 483.85-394.61 527.24-580.34 153.36-604.805-955.053-507.433-996.465-5.62-41.412 501.82-767.353-290.359-779.481 20.33-12.128 310.7 396.401 783.31 663.272 872.4 266.872 89.09 188.37-283.6 585.434-306.77Z"/><path stroke="url(#bv)" d="M1111.11 1584.91c310.16-18.02 472.34-385.2 514.66-566.54 149.58-590.524-932.67-495.718-972.971-5.73-40.302 489.98-749.336-283.714-761.095 19.66-11.758 303.37 387.262 764.94 647.864 852 260.603 87.06 183.853-276.87 571.542-299.39Z"/><path stroke="url(#bw)" d="M1102.62 1556.62c302.66-17.74 461.12-376.1 502.51-553.07 146.28-576.289-909.845-483.244-949.435-5.112C616.105 1476.57-75.365 721.973-87.003 1018c-11.638 296.02 377.485 746.22 631.738 831.04 254.253 84.82 179.554-270.25 557.885-292.42Z"/><path stroke="url(#bx)" d="M1093.71 1528.6c295.16-17.22 449.6-366.68 489.92-539.263 142.5-562.002-887.458-471.524-925.938-5.225C619.212 1450.41-55.352 714.3-66.62 1003c-11.27 288.71 368.346 727.87 616.33 810.65 247.983 82.79 175.037-263.52 544-285.05Z"/><path stroke="url(#by)" d="M1085.21 1500.31c287.67-16.94 438.38-357.59 477.78-525.796 139.2-547.769-864.639-459.051-902.407-4.604-37.769 454.45-694.769-262.567-705.916 18.792-11.148 281.358 358.569 709.138 600.204 789.688 241.634 80.55 170.739-256.91 530.339-278.08Z"/><path stroke="url(#bz)" d="M1076.3 1472.3c280.18-16.43 426.87-348.17 465.2-511.995 135.42-533.483-842.256-447.332-878.915-4.717-36.658 442.612-676.75-255.915-687.53 18.121-10.778 274.041 349.431 690.781 584.797 769.301 235.365 78.51 166.221-250.18 516.448-270.71Z"/><path stroke="url(#bA)" d="M1069 1444.26c272.81-15.79 415.38-338.74 452.57-498.233 131.45-519.398-820.467-436.214-855.814-5.23C630.409 1371.78 6.591 691.101-3.689 957.945-13.97 1224.79 337.1 1630.87 566.34 1707.5c229.24 76.62 161.656-243.5 502.659-263.24Z"/><path stroke="url(#bB)" d="M1060.14 1416.29c265.19-15.39 403.84-329.34 440.02-484.383 127.87-504.911-797.482-423.892-831.92-4.942-34.438 418.945-640.716-242.611-650.757 16.78-10.04 259.395 331.153 654.065 553.98 728.515 222.826 74.45 157.187-236.72 488.677-255.97Z"/><path stroke="url(#bC)" d="M1051.59 1387.95c257.81-15 392.65-320.22 427.84-470.96 124.36-490.878-775.265-412.021-808.79-4.721-33.526 407.301-622.873-235.798-632.663 16.378-9.79 252.173 321.874 635.843 538.496 708.193 216.622 72.36 152.841-230.15 475.117-248.89Z"/><path stroke="url(#bD)" d="M1042.73 1359.99c250.2-14.6 381.11-310.83 415.29-457.115 120.79-476.391-752.27-399.699-784.887-4.433-32.616 395.268-604.423-228.714-613.974 16.01-9.551 244.728 312.237 616.988 522.445 687.168 210.208 70.17 148.372-223.38 461.126-241.63Z"/><path stroke="url(#bE)" d="M1034.18 1331.64c242.83-14.2 369.91-301.7 403.11-443.684 117.29-462.358-730.056-387.828-761.76-4.212-31.704 383.616-586.58-221.901-595.88 15.608-9.3 237.508 302.958 598.758 506.961 666.848 204.004 68.08 144.027-216.82 447.569-234.56Z"/><path stroke="url(#bF)" d="M1025.26 1303.62c235.34-13.68 358.41-292.28 390.52-429.879 113.52-448.072-707.663-376.108-738.256-4.325C646.93 1241.2 108.961 654.168 100.03 884.354c-8.931 230.186 293.819 580.406 491.553 646.456 197.734 66.05 139.509-210.09 433.677-227.19Z"/><path stroke="url(#bG)" d="M1016.77 1275.33c227.84-13.4 347.18-283.187 378.38-416.408 110.21-433.839-684.847-363.635-714.729-3.704-29.882 359.932-550.289-208.004-559.098 14.839-8.81 222.843 284.042 561.673 475.427 625.493 191.385 63.81 135.212-203.47 420.02-220.22Z"/><path stroke="url(#bH)" d="M1007.85 1247.32c220.35-12.88 335.68-273.775 365.8-402.611 106.43-419.552-662.461-351.915-691.233-3.816-28.772 348.097-532.271-201.351-540.712 14.169-8.441 215.518 274.904 543.318 460.02 605.098 185.115 61.78 130.693-196.74 406.125-212.84Z"/><path stroke="url(#bI)" d="M999.843 1218.57c212.737-12.49 324.137-264.381 353.247-388.767 102.86-405.064-639.472-339.593-667.334-3.528-27.863 336.065-513.822-194.267-522.024 13.8C155.53 1048.14 429 1364.54 607.701 1424.14c178.701 59.6 126.224-189.96 392.142-205.57Z"/><path stroke="url(#bJ)" d="M990.93 1190.56c205.24-11.98 312.62-254.969 340.66-374.969 99.08-390.778-617.086-327.873-643.838-3.64-26.753 324.229-495.804-187.615-503.638 13.129-7.833 200.75 256.129 506.11 428.561 563.68 172.432 57.56 121.707-183.24 378.255-198.2Z"/><path stroke="url(#bK)" d="M982.435 1162.26c197.745-11.68 301.405-245.861 328.515-361.488 95.78-376.545-594.261-315.4-620.302-3.019-26.041 312.377-477.529-180.37-485.241 13.03-7.712 193.397 246.352 487.387 412.435 542.717 166.082 55.32 117.409-176.62 364.593-191.24Z"/><path stroke="url(#bL)" d="M973.523 1134.25c190.257-11.17 289.887-236.45 315.927-347.691 92-362.258-571.875-303.68-596.806-3.131-24.93 300.552-459.511-173.718-466.854 12.36-7.343 186.077 237.213 469.032 397.026 522.322 159.813 53.3 112.892-169.89 350.707-183.86Z"/><path stroke="url(#bM)" d="M964.967 1105.9c182.883-10.77 278.693-227.33 303.743-334.262 88.5-348.226-549.652-291.809-573.671-2.911-24.018 288.903-441.669-166.905-448.761 11.958-7.091 178.864 227.935 450.805 381.543 502.005 153.609 51.2 108.547-163.32 337.146-176.79Z"/></g></g><mask id="bN" width="1411" height="422" x="158" y="1384" maskUnits="userSpaceOnUse" style="mask-type:alpha"><path fill="#D9D9D9" d="m158.232 1765.3 1399.278-380.884 11.03 40.521-1399.278 380.884z" opacity=".05"/></mask><g stroke-opacity=".5" mask="url(#bN)"><path stroke="url(#bO)" d="M1136.94 1669.68c332.76-19.44 506.91-413.42 552.38-607.98 160.71-633.583-1000.425-531.479-1043.857-5.8-43.431 525.68-803.819-304.095-816.555 21.37-12.735 325.47 415.175 820.52 694.731 913.82 279.555 93.31 197.357-297.1 613.301-321.41Z"/><path stroke="url(#bP)" d="M1128.52 1641.22c325.14-18.82 495.07-403.72 539.39-593.81 156.66-619.047-977.876-519.914-1019.999-6.25-42.124 513.67-785.628-297.604-797.877 20.43-12.249 318.04 406.177 802.03 679.398 893.36 273.221 91.33 192.667-290.21 599.088-313.73Z"/><path stroke="url(#bQ)" d="M1120.03 1612.92c317.65-18.53 483.85-394.61 527.24-580.34 153.36-604.805-955.053-507.433-996.465-5.62-41.412 501.82-767.353-290.359-779.481 20.33-12.128 310.7 396.401 783.31 663.272 872.4 266.872 89.09 188.37-283.6 585.434-306.77Z"/><path stroke="url(#bR)" d="M1111.11 1584.91c310.16-18.02 472.34-385.2 514.66-566.54 149.58-590.524-932.67-495.718-972.971-5.73-40.302 489.98-749.336-283.714-761.095 19.66-11.758 303.37 387.262 764.94 647.864 852 260.603 87.06 183.853-276.87 571.542-299.39Z"/><path stroke="url(#bS)" d="M1102.62 1556.62c302.66-17.74 461.12-376.1 502.51-553.07 146.28-576.289-909.845-483.244-949.435-5.112C616.105 1476.57-75.365 721.973-87.003 1018c-11.638 296.02 377.485 746.22 631.738 831.04 254.253 84.82 179.554-270.25 557.885-292.42Z"/><path stroke="url(#bT)" d="M1093.71 1528.6c295.16-17.22 449.6-366.68 489.92-539.263 142.5-562.002-887.458-471.524-925.938-5.225C619.212 1450.41-55.352 714.3-66.62 1003c-11.27 288.71 368.346 727.87 616.33 810.65 247.983 82.79 175.037-263.52 544-285.05Z"/><path stroke="url(#bU)" d="M1085.21 1500.31c287.67-16.94 438.38-357.59 477.78-525.796 139.2-547.769-864.639-459.051-902.407-4.604-37.769 454.45-694.769-262.567-705.916 18.792-11.148 281.358 358.569 709.138 600.204 789.688 241.634 80.55 170.739-256.91 530.339-278.08Z"/><path stroke="url(#bV)" d="M1076.3 1472.3c280.18-16.43 426.87-348.17 465.2-511.995 135.42-533.483-842.256-447.332-878.915-4.717-36.658 442.612-676.75-255.915-687.53 18.121-10.778 274.041 349.431 690.781 584.797 769.301 235.365 78.51 166.221-250.18 516.448-270.71Z"/><path stroke="url(#bW)" d="M1069 1444.26c272.81-15.79 415.38-338.74 452.57-498.233 131.45-519.398-820.467-436.214-855.814-5.23C630.409 1371.78 6.591 691.101-3.689 957.945-13.97 1224.79 337.1 1630.87 566.34 1707.5c229.24 76.62 161.656-243.5 502.659-263.24Z"/><path stroke="url(#bX)" d="M1060.14 1416.29c265.19-15.39 403.84-329.34 440.02-484.383 127.87-504.911-797.482-423.892-831.92-4.942-34.438 418.945-640.716-242.611-650.757 16.78-10.04 259.395 331.153 654.065 553.98 728.515 222.826 74.45 157.187-236.72 488.677-255.97Z"/><path stroke="url(#bY)" d="M1051.59 1387.95c257.81-15 392.65-320.22 427.84-470.96 124.36-490.878-775.265-412.021-808.79-4.721-33.526 407.301-622.873-235.798-632.663 16.378-9.79 252.173 321.874 635.843 538.496 708.193 216.622 72.36 152.841-230.15 475.117-248.89Z"/><path stroke="url(#bZ)" d="M1042.73 1359.99c250.2-14.6 381.11-310.83 415.29-457.115 120.79-476.391-752.27-399.699-784.887-4.433-32.616 395.268-604.423-228.714-613.974 16.01-9.551 244.728 312.237 616.988 522.445 687.168 210.208 70.17 148.372-223.38 461.126-241.63Z"/><path stroke="url(#ca)" d="M1034.18 1331.64c242.83-14.2 369.91-301.7 403.11-443.684 117.29-462.358-730.056-387.828-761.76-4.212-31.704 383.616-586.58-221.901-595.88 15.608-9.3 237.508 302.958 598.758 506.961 666.848 204.004 68.08 144.027-216.82 447.569-234.56Z"/><path stroke="url(#cb)" d="M1025.26 1303.62c235.34-13.68 358.41-292.28 390.52-429.879 113.52-448.072-707.663-376.108-738.256-4.325C646.93 1241.2 108.961 654.168 100.03 884.354c-8.931 230.186 293.819 580.406 491.553 646.456 197.734 66.05 139.509-210.09 433.677-227.19Z"/><path stroke="url(#cc)" d="M1016.77 1275.33c227.84-13.4 347.18-283.187 378.38-416.408 110.21-433.839-684.847-363.635-714.729-3.704-29.882 359.932-550.289-208.004-559.098 14.839-8.81 222.843 284.042 561.673 475.427 625.493 191.385 63.81 135.212-203.47 420.02-220.22Z"/><path stroke="url(#cd)" d="M1007.85 1247.32c220.35-12.88 335.68-273.775 365.8-402.611 106.43-419.552-662.461-351.915-691.233-3.816-28.772 348.097-532.271-201.351-540.712 14.169-8.441 215.518 274.904 543.318 460.02 605.098 185.115 61.78 130.693-196.74 406.125-212.84Z"/><path stroke="url(#ce)" d="M999.843 1218.57c212.737-12.49 324.137-264.381 353.247-388.767 102.86-405.064-639.472-339.593-667.334-3.528-27.863 336.065-513.822-194.267-522.024 13.8C155.53 1048.14 429 1364.54 607.701 1424.14c178.701 59.6 126.224-189.96 392.142-205.57Z"/><path stroke="url(#cf)" d="M990.93 1190.56c205.24-11.98 312.62-254.969 340.66-374.969 99.08-390.778-617.086-327.873-643.838-3.64-26.753 324.229-495.804-187.615-503.638 13.129-7.833 200.75 256.129 506.11 428.561 563.68 172.432 57.56 121.707-183.24 378.255-198.2Z"/></g><g clip-path="url(#cg)"><mask id="ch" width="1403" height="668" x="209" y="1435" maskUnits="userSpaceOnUse" style="mask-type:alpha"><path fill="#D9D9D9" d="m209.958 1794.52 1317.58-358.646 83.905 308.248-1317.58 358.646z" opacity=".02"/></mask><g stroke-opacity=".5" mask="url(#ch)"><path stroke="url(#ci)" d="M1136.94 1669.68c332.76-19.44 506.91-413.42 552.38-607.98 160.71-633.583-1000.425-531.479-1043.857-5.8-43.431 525.68-803.819-304.095-816.555 21.37-12.735 325.47 415.175 820.52 694.731 913.82 279.555 93.31 197.357-297.1 613.301-321.41Z"/><path stroke="url(#cj)" d="M1128.52 1641.22c325.14-18.82 495.07-403.72 539.39-593.81 156.66-619.047-977.876-519.914-1019.999-6.25-42.124 513.67-785.628-297.604-797.877 20.43-12.249 318.04 406.177 802.03 679.398 893.36 273.221 91.33 192.667-290.21 599.088-313.73Z"/><path stroke="url(#ck)" d="M1120.03 1612.92c317.65-18.53 483.85-394.61 527.24-580.34 153.36-604.805-955.053-507.433-996.465-5.62-41.412 501.82-767.353-290.359-779.481 20.33-12.128 310.7 396.401 783.31 663.272 872.4 266.872 89.09 188.37-283.6 585.434-306.77Z"/><path stroke="url(#cl)" d="M1111.11 1584.91c310.16-18.02 472.34-385.2 514.66-566.54 149.58-590.524-932.67-495.718-972.971-5.73-40.302 489.98-749.336-283.714-761.095 19.66-11.758 303.37 387.262 764.94 647.864 852 260.603 87.06 183.853-276.87 571.542-299.39Z"/><path stroke="url(#cm)" d="M1102.62 1556.62c302.66-17.74 461.12-376.1 502.51-553.07 146.28-576.289-909.845-483.244-949.435-5.112C616.105 1476.57-75.365 721.973-87.003 1018c-11.638 296.02 377.485 746.22 631.738 831.04 254.253 84.82 179.554-270.25 557.885-292.42Z"/><path stroke="url(#cn)" d="M1093.71 1528.6c295.16-17.22 449.6-366.68 489.92-539.263 142.5-562.002-887.458-471.524-925.938-5.225C619.212 1450.41-55.352 714.3-66.62 1003c-11.27 288.71 368.346 727.87 616.33 810.65 247.983 82.79 175.037-263.52 544-285.05Z"/><path stroke="url(#co)" d="M1085.21 1500.31c287.67-16.94 438.38-357.59 477.78-525.796 139.2-547.769-864.639-459.051-902.407-4.604-37.769 454.45-694.769-262.567-705.916 18.792-11.148 281.358 358.569 709.138 600.204 789.688 241.634 80.55 170.739-256.91 530.339-278.08Z"/><path stroke="url(#cp)" d="M1076.3 1472.3c280.18-16.43 426.87-348.17 465.2-511.995 135.42-533.483-842.256-447.332-878.915-4.717-36.658 442.612-676.75-255.915-687.53 18.121-10.778 274.041 349.431 690.781 584.797 769.301 235.365 78.51 166.221-250.18 516.448-270.71Z"/><path stroke="url(#cq)" d="M1069 1444.26c272.81-15.79 415.38-338.74 452.57-498.233 131.45-519.398-820.467-436.214-855.814-5.23C630.409 1371.78 6.591 691.101-3.689 957.945-13.97 1224.79 337.1 1630.87 566.34 1707.5c229.24 76.62 161.656-243.5 502.659-263.24Z"/><path stroke="url(#cr)" d="M1060.14 1416.29c265.19-15.39 403.84-329.34 440.02-484.383 127.87-504.911-797.482-423.892-831.92-4.942-34.438 418.945-640.716-242.611-650.757 16.78-10.04 259.395 331.153 654.065 553.98 728.515 222.826 74.45 157.187-236.72 488.677-255.97Z"/><path stroke="url(#cs)" d="M1051.59 1387.95c257.81-15 392.65-320.22 427.84-470.96 124.36-490.878-775.265-412.021-808.79-4.721-33.526 407.301-622.873-235.798-632.663 16.378-9.79 252.173 321.874 635.843 538.496 708.193 216.622 72.36 152.841-230.15 475.117-248.89Z"/><path stroke="url(#ct)" d="M1042.73 1359.99c250.2-14.6 381.11-310.83 415.29-457.115 120.79-476.391-752.27-399.699-784.887-4.433-32.616 395.268-604.423-228.714-613.974 16.01-9.551 244.728 312.237 616.988 522.445 687.168 210.208 70.17 148.372-223.38 461.126-241.63Z"/><path stroke="url(#cu)" d="M1034.18 1331.64c242.83-14.2 369.91-301.7 403.11-443.684 117.29-462.358-730.056-387.828-761.76-4.212-31.704 383.616-586.58-221.901-595.88 15.608-9.3 237.508 302.958 598.758 506.961 666.848 204.004 68.08 144.027-216.82 447.569-234.56Z"/><path stroke="url(#cv)" d="M1025.26 1303.62c235.34-13.68 358.41-292.28 390.52-429.879 113.52-448.072-707.663-376.108-738.256-4.325C646.93 1241.2 108.961 654.168 100.03 884.354c-8.931 230.186 293.819 580.406 491.553 646.456 197.734 66.05 139.509-210.09 433.677-227.19Z"/><path stroke="url(#cw)" d="M1016.77 1275.33c227.84-13.4 347.18-283.187 378.38-416.408 110.21-433.839-684.847-363.635-714.729-3.704-29.882 359.932-550.289-208.004-559.098 14.839-8.81 222.843 284.042 561.673 475.427 625.493 191.385 63.81 135.212-203.47 420.02-220.22Z"/><path stroke="url(#cx)" d="M1007.85 1247.32c220.35-12.88 335.68-273.775 365.8-402.611 106.43-419.552-662.461-351.915-691.233-3.816-28.772 348.097-532.271-201.351-540.712 14.169-8.441 215.518 274.904 543.318 460.02 605.098 185.115 61.78 130.693-196.74 406.125-212.84Z"/><path stroke="url(#cy)" d="M999.843 1218.57c212.737-12.49 324.137-264.381 353.247-388.767 102.86-405.064-639.472-339.593-667.334-3.528-27.863 336.065-513.822-194.267-522.024 13.8C155.53 1048.14 429 1364.54 607.701 1424.14c178.701 59.6 126.224-189.96 392.142-205.57Z"/></g></g><defs><linearGradient id="aQ" x1="-162.771" x2="485.457" y1="1004.78" y2="1645.68" gradientUnits="userSpaceOnUse"><stop stop-color="#fff"/><stop offset=".524" stop-color="#D795FF"/><stop offset="1" stop-color="#7BC2FE"/></linearGradient><linearGradient id="c" x1="-850.591" x2="283.616" y1="1442.61" y2="2563.94" gradientUnits="userSpaceOnUse"><stop stop-color="#fff"/><stop offset=".524" stop-color="#D795FF"/><stop offset="1" stop-color="#7BC2FE"/></linearGradient><linearGradient id="e" x1="-813.712" x2="295.31" y1="1418.23" y2="2514.53" gradientUnits="userSpaceOnUse"><stop stop-color="#fff"/><stop offset=".524" stop-color="#D795FF"/><stop offset="1" stop-color="#7BC2FE"/></linearGradient><linearGradient id="f" x1="-777.291" x2="305.533" y1="1395.99" y2="2466.51" gradientUnits="userSpaceOnUse"><stop stop-color="#fff"/><stop offset=".524" stop-color="#D795FF"/><stop offset="1" stop-color="#7BC2FE"/></linearGradient><linearGradient id="g" x1="-741.523" x2="316.082" y1="1372.62" y2="2418.15" gradientUnits="userSpaceOnUse"><stop stop-color="#fff"/><stop offset=".524" stop-color="#D795FF"/><stop offset="1" stop-color="#7BC2FE"/></linearGradient><linearGradient id="h" x1="-705.099" x2="326.308" y1="1350.39" y2="2370.12" gradientUnits="userSpaceOnUse"><stop stop-color="#fff"/><stop offset=".524" stop-color="#D795FF"/><stop offset="1" stop-color="#7BC2FE"/></linearGradient><linearGradient id="i" x1="-669.328" x2="336.86" y1="1327.02" y2="2321.77" gradientUnits="userSpaceOnUse"><stop stop-color="#fff"/><stop offset=".524" stop-color="#D795FF"/><stop offset="1" stop-color="#7BC2FE"/></linearGradient><linearGradient id="j" x1="-632.91" x2="347.08" y1="1304.79" y2="2273.74" gradientUnits="userSpaceOnUse"><stop stop-color="#fff"/><stop offset=".524" stop-color="#D795FF"/><stop offset="1" stop-color="#7BC2FE"/></linearGradient><linearGradient id="k" x1="-597.133" x2="357.638" y1="1281.42" y2="2225.39" gradientUnits="userSpaceOnUse"><stop stop-color="#fff"/><stop offset=".524" stop-color="#D795FF"/><stop offset="1" stop-color="#7BC2FE"/></linearGradient><linearGradient id="l" x1="-560.598" x2="369.898" y1="1257.18" y2="2177.01" gradientUnits="userSpaceOnUse"><stop stop-color="#fff"/><stop offset=".524" stop-color="#D795FF"/><stop offset="1" stop-color="#7BC2FE"/></linearGradient><linearGradient id="m" x1="-523.93" x2="380.403" y1="1234.71" y2="2128.71" gradientUnits="userSpaceOnUse"><stop stop-color="#fff"/><stop offset=".524" stop-color="#D795FF"/><stop offset="1" stop-color="#7BC2FE"/></linearGradient><linearGradient id="n" x1="-488.412" x2="390.667" y1="1211.57" y2="2080.62" gradientUnits="userSpaceOnUse"><stop stop-color="#fff"/><stop offset=".524" stop-color="#D795FF"/><stop offset="1" stop-color="#7BC2FE"/></linearGradient><linearGradient id="o" x1="-451.735" x2="401.181" y1="1189.11" y2="2032.33" gradientUnits="userSpaceOnUse"><stop stop-color="#fff"/><stop offset=".524" stop-color="#D795FF"/><stop offset="1" stop-color="#7BC2FE"/></linearGradient><linearGradient id="p" x1="-416.22" x2="411.442" y1="1165.97" y2="1984.24" gradientUnits="userSpaceOnUse"><stop stop-color="#fff"/><stop offset=".524" stop-color="#D795FF"/><stop offset="1" stop-color="#7BC2FE"/></linearGradient><linearGradient id="q" x1="-380.452" x2="421.991" y1="1142.6" y2="1935.88" gradientUnits="userSpaceOnUse"><stop stop-color="#fff"/><stop offset=".524" stop-color="#D795FF"/><stop offset="1" stop-color="#7BC2FE"/></linearGradient><linearGradient id="r" x1="-344.028" x2="432.217" y1="1120.37" y2="1887.86" gradientUnits="userSpaceOnUse"><stop stop-color="#fff"/><stop offset=".524" stop-color="#D795FF"/><stop offset="1" stop-color="#7BC2FE"/></linearGradient><linearGradient id="s" x1="-308.258" x2="442.768" y1="1097" y2="1839.5" gradientUnits="userSpaceOnUse"><stop stop-color="#fff"/><stop offset=".524" stop-color="#D795FF"/><stop offset="1" stop-color="#7BC2FE"/></linearGradient><linearGradient id="t" x1="-270.735" x2="454.128" y1="1073.75" y2="1790.42" gradientUnits="userSpaceOnUse"><stop stop-color="#fff"/><stop offset=".524" stop-color="#D795FF"/><stop offset="1" stop-color="#7BC2FE"/></linearGradient><linearGradient id="u" x1="-234.965" x2="464.679" y1="1050.38" y2="1742.06" gradientUnits="userSpaceOnUse"><stop stop-color="#fff"/><stop offset=".524" stop-color="#D795FF"/><stop offset="1" stop-color="#7BC2FE"/></linearGradient><linearGradient id="v" x1="-198.541" x2="474.905" y1="1028.15" y2="1694.04" gradientUnits="userSpaceOnUse"><stop stop-color="#fff"/><stop offset=".524" stop-color="#D795FF"/><stop offset="1" stop-color="#7BC2FE"/></linearGradient><linearGradient id="w" x1="-162.771" x2="485.457" y1="1004.78" y2="1645.68" gradientUnits="userSpaceOnUse"><stop stop-color="#fff"/><stop offset=".524" stop-color="#D795FF"/><stop offset="1" stop-color="#7BC2FE"/></linearGradient><linearGradient id="x" x1="-127.258" x2="495.715" y1="981.636" y2="1597.59" gradientUnits="userSpaceOnUse"><stop stop-color="#fff"/><stop offset=".524" stop-color="#D795FF"/><stop offset="1" stop-color="#7BC2FE"/></linearGradient><linearGradient id="A" x1="-850.591" x2="283.616" y1="1442.61" y2="2563.94" gradientUnits="userSpaceOnUse"><stop stop-color="#fff"/><stop offset=".524" stop-color="#D795FF"/><stop offset="1" stop-color="#7BC2FE"/></linearGradient><linearGradient id="B" x1="-90.582" x2="506.229" y1="959.175" y2="1549.3" gradientUnits="userSpaceOnUse"><stop stop-color="#fff"/><stop offset=".524" stop-color="#D795FF"/><stop offset="1" stop-color="#7BC2FE"/></linearGradient><linearGradient id="C" x1="-813.712" x2="295.31" y1="1418.23" y2="2514.53" gradientUnits="userSpaceOnUse"><stop stop-color="#fff"/><stop offset=".524" stop-color="#D795FF"/><stop offset="1" stop-color="#7BC2FE"/></linearGradient><linearGradient id="D" x1="-777.291" x2="305.533" y1="1395.99" y2="2466.51" gradientUnits="userSpaceOnUse"><stop stop-color="#fff"/><stop offset=".524" stop-color="#D795FF"/><stop offset="1" stop-color="#7BC2FE"/></linearGradient><linearGradient id="E" x1="-741.523" x2="316.082" y1="1372.62" y2="2418.15" gradientUnits="userSpaceOnUse"><stop stop-color="#fff"/><stop offset=".524" stop-color="#D795FF"/><stop offset="1" stop-color="#7BC2FE"/></linearGradient><linearGradient id="F" x1="-705.099" x2="326.308" y1="1350.39" y2="2370.12" gradientUnits="userSpaceOnUse"><stop stop-color="#fff"/><stop offset=".524" stop-color="#D795FF"/><stop offset="1" stop-color="#7BC2FE"/></linearGradient><linearGradient id="G" x1="-669.328" x2="336.86" y1="1327.02" y2="2321.77" gradientUnits="userSpaceOnUse"><stop stop-color="#fff"/><stop offset=".524" stop-color="#D795FF"/><stop offset="1" stop-color="#7BC2FE"/></linearGradient><linearGradient id="H" x1="-632.91" x2="347.08" y1="1304.79" y2="2273.74" gradientUnits="userSpaceOnUse"><stop stop-color="#fff"/><stop offset=".524" stop-color="#D795FF"/><stop offset="1" stop-color="#7BC2FE"/></linearGradient><linearGradient id="I" x1="-597.133" x2="357.638" y1="1281.42" y2="2225.39" gradientUnits="userSpaceOnUse"><stop stop-color="#fff"/><stop offset=".524" stop-color="#D795FF"/><stop offset="1" stop-color="#7BC2FE"/></linearGradient><linearGradient id="J" x1="-560.598" x2="369.898" y1="1257.18" y2="2177.01" gradientUnits="userSpaceOnUse"><stop stop-color="#fff"/><stop offset=".524" stop-color="#D795FF"/><stop offset="1" stop-color="#7BC2FE"/></linearGradient><linearGradient id="K" x1="-523.93" x2="380.403" y1="1234.71" y2="2128.71" gradientUnits="userSpaceOnUse"><stop stop-color="#fff"/><stop offset=".524" stop-color="#D795FF"/><stop offset="1" stop-color="#7BC2FE"/></linearGradient><linearGradient id="L" x1="-488.412" x2="390.667" y1="1211.57" y2="2080.62" gradientUnits="userSpaceOnUse"><stop stop-color="#fff"/><stop offset=".524" stop-color="#D795FF"/><stop offset="1" stop-color="#7BC2FE"/></linearGradient><linearGradient id="M" x1="-451.735" x2="401.181" y1="1189.11" y2="2032.33" gradientUnits="userSpaceOnUse"><stop stop-color="#fff"/><stop offset=".524" stop-color="#D795FF"/><stop offset="1" stop-color="#7BC2FE"/></linearGradient><linearGradient id="N" x1="-416.22" x2="411.442" y1="1165.97" y2="1984.24" gradientUnits="userSpaceOnUse"><stop stop-color="#fff"/><stop offset=".524" stop-color="#D795FF"/><stop offset="1" stop-color="#7BC2FE"/></linearGradient><linearGradient id="O" x1="-380.452" x2="421.991" y1="1142.6" y2="1935.88" gradientUnits="userSpaceOnUse"><stop stop-color="#fff"/><stop offset=".524" stop-color="#D795FF"/><stop offset="1" stop-color="#7BC2FE"/></linearGradient><linearGradient id="P" x1="-344.028" x2="432.217" y1="1120.37" y2="1887.86" gradientUnits="userSpaceOnUse"><stop stop-color="#fff"/><stop offset=".524" stop-color="#D795FF"/><stop offset="1" stop-color="#7BC2FE"/></linearGradient><linearGradient id="Q" x1="-308.258" x2="442.768" y1="1097" y2="1839.5" gradientUnits="userSpaceOnUse"><stop stop-color="#fff"/><stop offset=".524" stop-color="#D795FF"/><stop offset="1" stop-color="#7BC2FE"/></linearGradient><linearGradient id="R" x1="-270.735" x2="454.128" y1="1073.75" y2="1790.42" gradientUnits="userSpaceOnUse"><stop stop-color="#fff"/><stop offset=".524" stop-color="#D795FF"/><stop offset="1" stop-color="#7BC2FE"/></linearGradient><linearGradient id="S" x1="-234.965" x2="464.679" y1="1050.38" y2="1742.06" gradientUnits="userSpaceOnUse"><stop stop-color="#fff"/><stop offset=".524" stop-color="#D795FF"/><stop offset="1" stop-color="#7BC2FE"/></linearGradient><linearGradient id="T" x1="-198.541" x2="474.905" y1="1028.15" y2="1694.04" gradientUnits="userSpaceOnUse"><stop stop-color="#fff"/><stop offset=".524" stop-color="#D795FF"/><stop offset="1" stop-color="#7BC2FE"/></linearGradient><linearGradient id="U" x1="-162.771" x2="485.457" y1="1004.78" y2="1645.68" gradientUnits="userSpaceOnUse"><stop stop-color="#fff"/><stop offset=".524" stop-color="#D795FF"/><stop offset="1" stop-color="#7BC2FE"/></linearGradient><linearGradient id="V" x1="-127.258" x2="495.715" y1="981.636" y2="1597.59" gradientUnits="userSpaceOnUse"><stop stop-color="#fff"/><stop offset=".524" stop-color="#D795FF"/><stop offset="1" stop-color="#7BC2FE"/></linearGradient><linearGradient id="Y" x1="-850.591" x2="283.616" y1="1442.61" y2="2563.94" gradientUnits="userSpaceOnUse"><stop stop-color="#fff"/><stop offset=".524" stop-color="#D795FF"/><stop offset="1" stop-color="#7BC2FE"/></linearGradient><linearGradient id="Z" x1="-90.582" x2="506.229" y1="959.175" y2="1549.3" gradientUnits="userSpaceOnUse"><stop stop-color="#fff"/><stop offset=".524" stop-color="#D795FF"/><stop offset="1" stop-color="#7BC2FE"/></linearGradient><linearGradient id="aa" x1="-813.712" x2="295.31" y1="1418.23" y2="2514.53" gradientUnits="userSpaceOnUse"><stop stop-color="#fff"/><stop offset=".524" stop-color="#D795FF"/><stop offset="1" stop-color="#7BC2FE"/></linearGradient><linearGradient id="ab" x1="-777.291" x2="305.533" y1="1395.99" y2="2466.51" gradientUnits="userSpaceOnUse"><stop stop-color="#fff"/><stop offset=".524" stop-color="#D795FF"/><stop offset="1" stop-color="#7BC2FE"/></linearGradient><linearGradient id="ac" x1="-741.523" x2="316.082" y1="1372.62" y2="2418.15" gradientUnits="userSpaceOnUse"><stop stop-color="#fff"/><stop offset=".524" stop-color="#D795FF"/><stop offset="1" stop-color="#7BC2FE"/></linearGradient><linearGradient id="ad" x1="-705.099" x2="326.308" y1="1350.39" y2="2370.12" gradientUnits="userSpaceOnUse"><stop stop-color="#fff"/><stop offset=".524" stop-color="#D795FF"/><stop offset="1" stop-color="#7BC2FE"/></linearGradient><linearGradient id="ae" x1="-669.328" x2="336.86" y1="1327.02" y2="2321.77" gradientUnits="userSpaceOnUse"><stop stop-color="#fff"/><stop offset=".524" stop-color="#D795FF"/><stop offset="1" stop-color="#7BC2FE"/></linearGradient><linearGradient id="af" x1="-632.91" x2="347.08" y1="1304.79" y2="2273.74" gradientUnits="userSpaceOnUse"><stop stop-color="#fff"/><stop offset=".524" stop-color="#D795FF"/><stop offset="1" stop-color="#7BC2FE"/></linearGradient><linearGradient id="ag" x1="-597.133" x2="357.638" y1="1281.42" y2="2225.39" gradientUnits="userSpaceOnUse"><stop stop-color="#fff"/><stop offset=".524" stop-color="#D795FF"/><stop offset="1" stop-color="#7BC2FE"/></linearGradient><linearGradient id="ah" x1="-560.598" x2="369.898" y1="1257.18" y2="2177.01" gradientUnits="userSpaceOnUse"><stop stop-color="#fff"/><stop offset=".524" stop-color="#D795FF"/><stop offset="1" stop-color="#7BC2FE"/></linearGradient><linearGradient id="ai" x1="-523.93" x2="380.403" y1="1234.71" y2="2128.71" gradientUnits="userSpaceOnUse"><stop stop-color="#fff"/><stop offset=".524" stop-color="#D795FF"/><stop offset="1" stop-color="#7BC2FE"/></linearGradient><linearGradient id="aj" x1="-488.412" x2="390.667" y1="1211.57" y2="2080.62" gradientUnits="userSpaceOnUse"><stop stop-color="#fff"/><stop offset=".524" stop-color="#D795FF"/><stop offset="1" stop-color="#7BC2FE"/></linearGradient><linearGradient id="ak" x1="-451.735" x2="401.181" y1="1189.11" y2="2032.33" gradientUnits="userSpaceOnUse"><stop stop-color="#fff"/><stop offset=".524" stop-color="#D795FF"/><stop offset="1" stop-color="#7BC2FE"/></linearGradient><linearGradient id="al" x1="-416.22" x2="411.442" y1="1165.97" y2="1984.24" gradientUnits="userSpaceOnUse"><stop stop-color="#fff"/><stop offset=".524" stop-color="#D795FF"/><stop offset="1" stop-color="#7BC2FE"/></linearGradient><linearGradient id="am" x1="-380.452" x2="421.991" y1="1142.6" y2="1935.88" gradientUnits="userSpaceOnUse"><stop stop-color="#fff"/><stop offset=".524" stop-color="#D795FF"/><stop offset="1" stop-color="#7BC2FE"/></linearGradient><linearGradient id="an" x1="-344.028" x2="432.217" y1="1120.37" y2="1887.86" gradientUnits="userSpaceOnUse"><stop stop-color="#fff"/><stop offset=".524" stop-color="#D795FF"/><stop offset="1" stop-color="#7BC2FE"/></linearGradient><linearGradient id="ao" x1="-308.258" x2="442.768" y1="1097" y2="1839.5" gradientUnits="userSpaceOnUse"><stop stop-color="#fff"/><stop offset=".524" stop-color="#D795FF"/><stop offset="1" stop-color="#7BC2FE"/></linearGradient><linearGradient id="ap" x1="-270.735" x2="454.128" y1="1073.75" y2="1790.42" gradientUnits="userSpaceOnUse"><stop stop-color="#fff"/><stop offset=".524" stop-color="#D795FF"/><stop offset="1" stop-color="#7BC2FE"/></linearGradient><linearGradient id="aq" x1="-234.965" x2="464.679" y1="1050.38" y2="1742.06" gradientUnits="userSpaceOnUse"><stop stop-color="#fff"/><stop offset=".524" stop-color="#D795FF"/><stop offset="1" stop-color="#7BC2FE"/></linearGradient><linearGradient id="ar" x1="-198.541" x2="474.905" y1="1028.15" y2="1694.04" gradientUnits="userSpaceOnUse"><stop stop-color="#fff"/><stop offset=".524" stop-color="#D795FF"/><stop offset="1" stop-color="#7BC2FE"/></linearGradient><linearGradient id="as" x1="-162.771" x2="485.457" y1="1004.78" y2="1645.68" gradientUnits="userSpaceOnUse"><stop stop-color="#fff"/><stop offset=".524" stop-color="#D795FF"/><stop offset="1" stop-color="#7BC2FE"/></linearGradient><linearGradient id="at" x1="-127.258" x2="495.715" y1="981.636" y2="1597.59" gradientUnits="userSpaceOnUse"><stop stop-color="#fff"/><stop offset=".524" stop-color="#D795FF"/><stop offset="1" stop-color="#7BC2FE"/></linearGradient><linearGradient id="aw" x1="-850.591" x2="283.616" y1="1442.61" y2="2563.94" gradientUnits="userSpaceOnUse"><stop stop-color="#fff"/><stop offset=".524" stop-color="#D795FF"/><stop offset="1" stop-color="#7BC2FE"/></linearGradient><linearGradient id="ax" x1="-90.582" x2="506.229" y1="959.175" y2="1549.3" gradientUnits="userSpaceOnUse"><stop stop-color="#fff"/><stop offset=".524" stop-color="#D795FF"/><stop offset="1" stop-color="#7BC2FE"/></linearGradient><linearGradient id="ay" x1="-813.712" x2="295.31" y1="1418.23" y2="2514.53" gradientUnits="userSpaceOnUse"><stop stop-color="#fff"/><stop offset=".524" stop-color="#D795FF"/><stop offset="1" stop-color="#7BC2FE"/></linearGradient><linearGradient id="az" x1="-777.291" x2="305.533" y1="1395.99" y2="2466.51" gradientUnits="userSpaceOnUse"><stop stop-color="#fff"/><stop offset=".524" stop-color="#D795FF"/><stop offset="1" stop-color="#7BC2FE"/></linearGradient><linearGradient id="aA" x1="-741.523" x2="316.082" y1="1372.62" y2="2418.15" gradientUnits="userSpaceOnUse"><stop stop-color="#fff"/><stop offset=".524" stop-color="#D795FF"/><stop offset="1" stop-color="#7BC2FE"/></linearGradient><linearGradient id="aB" x1="-705.099" x2="326.308" y1="1350.39" y2="2370.12" gradientUnits="userSpaceOnUse"><stop stop-color="#fff"/><stop offset=".524" stop-color="#D795FF"/><stop offset="1" stop-color="#7BC2FE"/></linearGradient><linearGradient id="aC" x1="-669.328" x2="336.86" y1="1327.02" y2="2321.77" gradientUnits="userSpaceOnUse"><stop stop-color="#fff"/><stop offset=".524" stop-color="#D795FF"/><stop offset="1" stop-color="#7BC2FE"/></linearGradient><linearGradient id="aD" x1="-632.91" x2="347.08" y1="1304.79" y2="2273.74" gradientUnits="userSpaceOnUse"><stop stop-color="#fff"/><stop offset=".524" stop-color="#D795FF"/><stop offset="1" stop-color="#7BC2FE"/></linearGradient><linearGradient id="aE" x1="-597.133" x2="357.638" y1="1281.42" y2="2225.39" gradientUnits="userSpaceOnUse"><stop stop-color="#fff"/><stop offset=".524" stop-color="#D795FF"/><stop offset="1" stop-color="#7BC2FE"/></linearGradient><linearGradient id="aF" x1="-560.598" x2="369.898" y1="1257.18" y2="2177.01" gradientUnits="userSpaceOnUse"><stop stop-color="#fff"/><stop offset=".524" stop-color="#D795FF"/><stop offset="1" stop-color="#7BC2FE"/></linearGradient><linearGradient id="aG" x1="-523.93" x2="380.403" y1="1234.71" y2="2128.71" gradientUnits="userSpaceOnUse"><stop stop-color="#fff"/><stop offset=".524" stop-color="#D795FF"/><stop offset="1" stop-color="#7BC2FE"/></linearGradient><linearGradient id="aH" x1="-488.412" x2="390.667" y1="1211.57" y2="2080.62" gradientUnits="userSpaceOnUse"><stop stop-color="#fff"/><stop offset=".524" stop-color="#D795FF"/><stop offset="1" stop-color="#7BC2FE"/></linearGradient><linearGradient id="aI" x1="-451.735" x2="401.181" y1="1189.11" y2="2032.33" gradientUnits="userSpaceOnUse"><stop stop-color="#fff"/><stop offset=".524" stop-color="#D795FF"/><stop offset="1" stop-color="#7BC2FE"/></linearGradient><linearGradient id="aJ" x1="-416.22" x2="411.442" y1="1165.97" y2="1984.24" gradientUnits="userSpaceOnUse"><stop stop-color="#fff"/><stop offset=".524" stop-color="#D795FF"/><stop offset="1" stop-color="#7BC2FE"/></linearGradient><linearGradient id="aK" x1="-380.452" x2="421.991" y1="1142.6" y2="1935.88" gradientUnits="userSpaceOnUse"><stop stop-color="#fff"/><stop offset=".524" stop-color="#D795FF"/><stop offset="1" stop-color="#7BC2FE"/></linearGradient><linearGradient id="aL" x1="-344.028" x2="432.217" y1="1120.37" y2="1887.86" gradientUnits="userSpaceOnUse"><stop stop-color="#fff"/><stop offset=".524" stop-color="#D795FF"/><stop offset="1" stop-color="#7BC2FE"/></linearGradient><linearGradient id="aM" x1="-308.258" x2="442.768" y1="1097" y2="1839.5" gradientUnits="userSpaceOnUse"><stop stop-color="#fff"/><stop offset=".524" stop-color="#D795FF"/><stop offset="1" stop-color="#7BC2FE"/></linearGradient><linearGradient id="aN" x1="-270.735" x2="454.128" y1="1073.75" y2="1790.42" gradientUnits="userSpaceOnUse"><stop stop-color="#fff"/><stop offset=".524" stop-color="#D795FF"/><stop offset="1" stop-color="#7BC2FE"/></linearGradient><linearGradient id="aO" x1="-234.965" x2="464.679" y1="1050.38" y2="1742.06" gradientUnits="userSpaceOnUse"><stop stop-color="#fff"/><stop offset=".524" stop-color="#D795FF"/><stop offset="1" stop-color="#7BC2FE"/></linearGradient><linearGradient id="aP" x1="-198.541" x2="474.905" y1="1028.15" y2="1694.04" gradientUnits="userSpaceOnUse"><stop stop-color="#fff"/><stop offset=".524" stop-color="#D795FF"/><stop offset="1" stop-color="#7BC2FE"/></linearGradient><linearGradient id="d" x1="-90.582" x2="506.229" y1="959.175" y2="1549.3" gradientUnits="userSpaceOnUse"><stop stop-color="#fff"/><stop offset=".524" stop-color="#D795FF"/><stop offset="1" stop-color="#7BC2FE"/></linearGradient><linearGradient id="aR" x1="-127.258" x2="495.715" y1="981.636" y2="1597.59" gradientUnits="userSpaceOnUse"><stop stop-color="#fff"/><stop offset=".524" stop-color="#D795FF"/><stop offset="1" stop-color="#7BC2FE"/></linearGradient><linearGradient id="aU" x1="-850.591" x2="283.616" y1="1442.61" y2="2563.94" gradientUnits="userSpaceOnUse"><stop stop-color="#fff"/><stop offset=".524" stop-color="#D795FF"/><stop offset="1" stop-color="#7BC2FE"/></linearGradient><linearGradient id="aV" x1="-90.582" x2="506.229" y1="959.175" y2="1549.3" gradientUnits="userSpaceOnUse"><stop stop-color="#fff"/><stop offset=".524" stop-color="#D795FF"/><stop offset="1" stop-color="#7BC2FE"/></linearGradient><linearGradient id="aW" x1="-813.712" x2="295.31" y1="1418.23" y2="2514.53" gradientUnits="userSpaceOnUse"><stop stop-color="#fff"/><stop offset=".524" stop-color="#D795FF"/><stop offset="1" stop-color="#7BC2FE"/></linearGradient><linearGradient id="aX" x1="-777.291" x2="305.533" y1="1395.99" y2="2466.51" gradientUnits="userSpaceOnUse"><stop stop-color="#fff"/><stop offset=".524" stop-color="#D795FF"/><stop offset="1" stop-color="#7BC2FE"/></linearGradient><linearGradient id="aY" x1="-741.523" x2="316.082" y1="1372.62" y2="2418.15" gradientUnits="userSpaceOnUse"><stop stop-color="#fff"/><stop offset=".524" stop-color="#D795FF"/><stop offset="1" stop-color="#7BC2FE"/></linearGradient><linearGradient id="aZ" x1="-705.099" x2="326.308" y1="1350.39" y2="2370.12" gradientUnits="userSpaceOnUse"><stop stop-color="#fff"/><stop offset=".524" stop-color="#D795FF"/><stop offset="1" stop-color="#7BC2FE"/></linearGradient><linearGradient id="ba" x1="-669.328" x2="336.86" y1="1327.02" y2="2321.77" gradientUnits="userSpaceOnUse"><stop stop-color="#fff"/><stop offset=".524" stop-color="#D795FF"/><stop offset="1" stop-color="#7BC2FE"/></linearGradient><linearGradient id="bb" x1="-632.91" x2="347.08" y1="1304.79" y2="2273.74" gradientUnits="userSpaceOnUse"><stop stop-color="#fff"/><stop offset=".524" stop-color="#D795FF"/><stop offset="1" stop-color="#7BC2FE"/></linearGradient><linearGradient id="bc" x1="-597.133" x2="357.638" y1="1281.42" y2="2225.39" gradientUnits="userSpaceOnUse"><stop stop-color="#fff"/><stop offset=".524" stop-color="#D795FF"/><stop offset="1" stop-color="#7BC2FE"/></linearGradient><linearGradient id="bd" x1="-560.598" x2="369.898" y1="1257.18" y2="2177.01" gradientUnits="userSpaceOnUse"><stop stop-color="#fff"/><stop offset=".524" stop-color="#D795FF"/><stop offset="1" stop-color="#7BC2FE"/></linearGradient><linearGradient id="be" x1="-523.93" x2="380.403" y1="1234.71" y2="2128.71" gradientUnits="userSpaceOnUse"><stop stop-color="#fff"/><stop offset=".524" stop-color="#D795FF"/><stop offset="1" stop-color="#7BC2FE"/></linearGradient><linearGradient id="bf" x1="-488.412" x2="390.667" y1="1211.57" y2="2080.62" gradientUnits="userSpaceOnUse"><stop stop-color="#fff"/><stop offset=".524" stop-color="#D795FF"/><stop offset="1" stop-color="#7BC2FE"/></linearGradient><linearGradient id="bg" x1="-451.735" x2="401.181" y1="1189.11" y2="2032.33" gradientUnits="userSpaceOnUse"><stop stop-color="#fff"/><stop offset=".524" stop-color="#D795FF"/><stop offset="1" stop-color="#7BC2FE"/></linearGradient><linearGradient id="bh" x1="-416.22" x2="411.442" y1="1165.97" y2="1984.24" gradientUnits="userSpaceOnUse"><stop stop-color="#fff"/><stop offset=".524" stop-color="#D795FF"/><stop offset="1" stop-color="#7BC2FE"/></linearGradient><linearGradient id="bi" x1="-380.452" x2="421.991" y1="1142.6" y2="1935.88" gradientUnits="userSpaceOnUse"><stop stop-color="#fff"/><stop offset=".524" stop-color="#D795FF"/><stop offset="1" stop-color="#7BC2FE"/></linearGradient><linearGradient id="bj" x1="-344.028" x2="432.217" y1="1120.37" y2="1887.86" gradientUnits="userSpaceOnUse"><stop stop-color="#fff"/><stop offset=".524" stop-color="#D795FF"/><stop offset="1" stop-color="#7BC2FE"/></linearGradient><linearGradient id="bk" x1="-308.258" x2="442.768" y1="1097" y2="1839.5" gradientUnits="userSpaceOnUse"><stop stop-color="#fff"/><stop offset=".524" stop-color="#D795FF"/><stop offset="1" stop-color="#7BC2FE"/></linearGradient><linearGradient id="bl" x1="-270.735" x2="454.128" y1="1073.75" y2="1790.42" gradientUnits="userSpaceOnUse"><stop stop-color="#fff"/><stop offset=".524" stop-color="#D795FF"/><stop offset="1" stop-color="#7BC2FE"/></linearGradient><linearGradient id="bm" x1="-234.965" x2="464.679" y1="1050.38" y2="1742.06" gradientUnits="userSpaceOnUse"><stop stop-color="#fff"/><stop offset=".524" stop-color="#D795FF"/><stop offset="1" stop-color="#7BC2FE"/></linearGradient><linearGradient id="bn" x1="-198.541" x2="474.905" y1="1028.15" y2="1694.04" gradientUnits="userSpaceOnUse"><stop stop-color="#fff"/><stop offset=".524" stop-color="#D795FF"/><stop offset="1" stop-color="#7BC2FE"/></linearGradient><linearGradient id="bo" x1="-162.771" x2="485.457" y1="1004.78" y2="1645.68" gradientUnits="userSpaceOnUse"><stop stop-color="#fff"/><stop offset=".524" stop-color="#D795FF"/><stop offset="1" stop-color="#7BC2FE"/></linearGradient><linearGradient id="bp" x1="-127.258" x2="495.715" y1="981.636" y2="1597.59" gradientUnits="userSpaceOnUse"><stop stop-color="#fff"/><stop offset=".524" stop-color="#D795FF"/><stop offset="1" stop-color="#7BC2FE"/></linearGradient><linearGradient id="bs" x1="-850.591" x2="283.616" y1="1442.61" y2="2563.94" gradientUnits="userSpaceOnUse"><stop stop-color="#fff"/><stop offset=".524" stop-color="#D795FF"/><stop offset="1" stop-color="#7BC2FE"/></linearGradient><linearGradient id="bt" x1="-813.712" x2="295.31" y1="1418.23" y2="2514.53" gradientUnits="userSpaceOnUse"><stop stop-color="#fff"/><stop offset=".524" stop-color="#D795FF"/><stop offset="1" stop-color="#7BC2FE"/></linearGradient><linearGradient id="bu" x1="-777.291" x2="305.533" y1="1395.99" y2="2466.51" gradientUnits="userSpaceOnUse"><stop stop-color="#fff"/><stop offset=".524" stop-color="#D795FF"/><stop offset="1" stop-color="#7BC2FE"/></linearGradient><linearGradient id="bv" x1="-741.523" x2="316.082" y1="1372.62" y2="2418.15" gradientUnits="userSpaceOnUse"><stop stop-color="#fff"/><stop offset=".524" stop-color="#D795FF"/><stop offset="1" stop-color="#7BC2FE"/></linearGradient><linearGradient id="bw" x1="-705.099" x2="326.308" y1="1350.39" y2="2370.12" gradientUnits="userSpaceOnUse"><stop stop-color="#fff"/><stop offset=".524" stop-color="#D795FF"/><stop offset="1" stop-color="#7BC2FE"/></linearGradient><linearGradient id="bx" x1="-669.328" x2="336.86" y1="1327.02" y2="2321.77" gradientUnits="userSpaceOnUse"><stop stop-color="#fff"/><stop offset=".524" stop-color="#D795FF"/><stop offset="1" stop-color="#7BC2FE"/></linearGradient><linearGradient id="by" x1="-632.91" x2="347.08" y1="1304.79" y2="2273.74" gradientUnits="userSpaceOnUse"><stop stop-color="#fff"/><stop offset=".524" stop-color="#D795FF"/><stop offset="1" stop-color="#7BC2FE"/></linearGradient><linearGradient id="bz" x1="-597.133" x2="357.638" y1="1281.42" y2="2225.39" gradientUnits="userSpaceOnUse"><stop stop-color="#fff"/><stop offset=".524" stop-color="#D795FF"/><stop offset="1" stop-color="#7BC2FE"/></linearGradient><linearGradient id="bA" x1="-560.598" x2="369.898" y1="1257.18" y2="2177.01" gradientUnits="userSpaceOnUse"><stop stop-color="#fff"/><stop offset=".524" stop-color="#D795FF"/><stop offset="1" stop-color="#7BC2FE"/></linearGradient><linearGradient id="bB" x1="-523.93" x2="380.403" y1="1234.71" y2="2128.71" gradientUnits="userSpaceOnUse"><stop stop-color="#fff"/><stop offset=".524" stop-color="#D795FF"/><stop offset="1" stop-color="#7BC2FE"/></linearGradient><linearGradient id="bC" x1="-488.412" x2="390.667" y1="1211.57" y2="2080.62" gradientUnits="userSpaceOnUse"><stop stop-color="#fff"/><stop offset=".524" stop-color="#D795FF"/><stop offset="1" stop-color="#7BC2FE"/></linearGradient><linearGradient id="bD" x1="-451.735" x2="401.181" y1="1189.11" y2="2032.33" gradientUnits="userSpaceOnUse"><stop stop-color="#fff"/><stop offset=".524" stop-color="#D795FF"/><stop offset="1" stop-color="#7BC2FE"/></linearGradient><linearGradient id="bE" x1="-416.22" x2="411.442" y1="1165.97" y2="1984.24" gradientUnits="userSpaceOnUse"><stop stop-color="#fff"/><stop offset=".524" stop-color="#D795FF"/><stop offset="1" stop-color="#7BC2FE"/></linearGradient><linearGradient id="bF" x1="-380.452" x2="421.991" y1="1142.6" y2="1935.88" gradientUnits="userSpaceOnUse"><stop stop-color="#fff"/><stop offset=".524" stop-color="#D795FF"/><stop offset="1" stop-color="#7BC2FE"/></linearGradient><linearGradient id="bG" x1="-344.028" x2="432.217" y1="1120.37" y2="1887.86" gradientUnits="userSpaceOnUse"><stop stop-color="#fff"/><stop offset=".524" stop-color="#D795FF"/><stop offset="1" stop-color="#7BC2FE"/></linearGradient><linearGradient id="bH" x1="-308.258" x2="442.768" y1="1097" y2="1839.5" gradientUnits="userSpaceOnUse"><stop stop-color="#fff"/><stop offset=".524" stop-color="#D795FF"/><stop offset="1" stop-color="#7BC2FE"/></linearGradient><linearGradient id="bI" x1="-270.735" x2="454.128" y1="1073.75" y2="1790.42" gradientUnits="userSpaceOnUse"><stop stop-color="#fff"/><stop offset=".524" stop-color="#D795FF"/><stop offset="1" stop-color="#7BC2FE"/></linearGradient><linearGradient id="bJ" x1="-234.965" x2="464.679" y1="1050.38" y2="1742.06" gradientUnits="userSpaceOnUse"><stop stop-color="#fff"/><stop offset=".524" stop-color="#D795FF"/><stop offset="1" stop-color="#7BC2FE"/></linearGradient><linearGradient id="bK" x1="-198.541" x2="474.905" y1="1028.15" y2="1694.04" gradientUnits="userSpaceOnUse"><stop stop-color="#fff"/><stop offset=".524" stop-color="#D795FF"/><stop offset="1" stop-color="#7BC2FE"/></linearGradient><linearGradient id="bL" x1="-162.771" x2="485.457" y1="1004.78" y2="1645.68" gradientUnits="userSpaceOnUse"><stop stop-color="#fff"/><stop offset=".524" stop-color="#D795FF"/><stop offset="1" stop-color="#7BC2FE"/></linearGradient><linearGradient id="bM" x1="-127.258" x2="495.715" y1="981.636" y2="1597.59" gradientUnits="userSpaceOnUse"><stop stop-color="#fff"/><stop offset=".524" stop-color="#D795FF"/><stop offset="1" stop-color="#7BC2FE"/></linearGradient><linearGradient id="bO" x1="-850.591" x2="283.616" y1="1442.61" y2="2563.94" gradientUnits="userSpaceOnUse"><stop stop-color="#fff"/><stop offset=".524" stop-color="#D795FF"/><stop offset="1" stop-color="#7BC2FE"/></linearGradient><linearGradient id="bP" x1="-813.712" x2="295.31" y1="1418.23" y2="2514.53" gradientUnits="userSpaceOnUse"><stop stop-color="#fff"/><stop offset=".524" stop-color="#D795FF"/><stop offset="1" stop-color="#7BC2FE"/></linearGradient><linearGradient id="bQ" x1="-777.291" x2="305.533" y1="1395.99" y2="2466.51" gradientUnits="userSpaceOnUse"><stop stop-color="#fff"/><stop offset=".524" stop-color="#D795FF"/><stop offset="1" stop-color="#7BC2FE"/></linearGradient><linearGradient id="bR" x1="-741.523" x2="316.082" y1="1372.62" y2="2418.15" gradientUnits="userSpaceOnUse"><stop stop-color="#fff"/><stop offset=".524" stop-color="#D795FF"/><stop offset="1" stop-color="#7BC2FE"/></linearGradient><linearGradient id="bS" x1="-705.099" x2="326.308" y1="1350.39" y2="2370.12" gradientUnits="userSpaceOnUse"><stop stop-color="#fff"/><stop offset=".524" stop-color="#D795FF"/><stop offset="1" stop-color="#7BC2FE"/></linearGradient><linearGradient id="bT" x1="-669.328" x2="336.86" y1="1327.02" y2="2321.77" gradientUnits="userSpaceOnUse"><stop stop-color="#fff"/><stop offset=".524" stop-color="#D795FF"/><stop offset="1" stop-color="#7BC2FE"/></linearGradient><linearGradient id="bU" x1="-632.91" x2="347.08" y1="1304.79" y2="2273.74" gradientUnits="userSpaceOnUse"><stop stop-color="#fff"/><stop offset=".524" stop-color="#D795FF"/><stop offset="1" stop-color="#7BC2FE"/></linearGradient><linearGradient id="bV" x1="-597.133" x2="357.638" y1="1281.42" y2="2225.39" gradientUnits="userSpaceOnUse"><stop stop-color="#fff"/><stop offset=".524" stop-color="#D795FF"/><stop offset="1" stop-color="#7BC2FE"/></linearGradient><linearGradient id="bW" x1="-560.598" x2="369.898" y1="1257.18" y2="2177.01" gradientUnits="userSpaceOnUse"><stop stop-color="#fff"/><stop offset=".524" stop-color="#D795FF"/><stop offset="1" stop-color="#7BC2FE"/></linearGradient><linearGradient id="bX" x1="-523.93" x2="380.403" y1="1234.71" y2="2128.71" gradientUnits="userSpaceOnUse"><stop stop-color="#fff"/><stop offset=".524" stop-color="#D795FF"/><stop offset="1" stop-color="#7BC2FE"/></linearGradient><linearGradient id="bY" x1="-488.412" x2="390.667" y1="1211.57" y2="2080.62" gradientUnits="userSpaceOnUse"><stop stop-color="#fff"/><stop offset=".524" stop-color="#D795FF"/><stop offset="1" stop-color="#7BC2FE"/></linearGradient><linearGradient id="bZ" x1="-451.735" x2="401.181" y1="1189.11" y2="2032.33" gradientUnits="userSpaceOnUse"><stop stop-color="#fff"/><stop offset=".524" stop-color="#D795FF"/><stop offset="1" stop-color="#7BC2FE"/></linearGradient><linearGradient id="ca" x1="-416.22" x2="411.442" y1="1165.97" y2="1984.24" gradientUnits="userSpaceOnUse"><stop stop-color="#fff"/><stop offset=".524" stop-color="#D795FF"/><stop offset="1" stop-color="#7BC2FE"/></linearGradient><linearGradient id="cb" x1="-380.452" x2="421.991" y1="1142.6" y2="1935.88" gradientUnits="userSpaceOnUse"><stop stop-color="#fff"/><stop offset=".524" stop-color="#D795FF"/><stop offset="1" stop-color="#7BC2FE"/></linearGradient><linearGradient id="cc" x1="-344.028" x2="432.217" y1="1120.37" y2="1887.86" gradientUnits="userSpaceOnUse"><stop stop-color="#fff"/><stop offset=".524" stop-color="#D795FF"/><stop offset="1" stop-color="#7BC2FE"/></linearGradient><linearGradient id="cd" x1="-308.258" x2="442.768" y1="1097" y2="1839.5" gradientUnits="userSpaceOnUse"><stop stop-color="#fff"/><stop offset=".524" stop-color="#D795FF"/><stop offset="1" stop-color="#7BC2FE"/></linearGradient><linearGradient id="ce" x1="-270.735" x2="454.128" y1="1073.75" y2="1790.42" gradientUnits="userSpaceOnUse"><stop stop-color="#fff"/><stop offset=".524" stop-color="#D795FF"/><stop offset="1" stop-color="#7BC2FE"/></linearGradient><linearGradient id="cf" x1="-234.965" x2="464.679" y1="1050.38" y2="1742.06" gradientUnits="userSpaceOnUse"><stop stop-color="#fff"/><stop offset=".524" stop-color="#D795FF"/><stop offset="1" stop-color="#7BC2FE"/></linearGradient><linearGradient id="ci" x1="-850.591" x2="283.616" y1="1442.61" y2="2563.94" gradientUnits="userSpaceOnUse"><stop stop-color="#fff"/><stop offset=".524" stop-color="#D795FF"/><stop offset="1" stop-color="#7BC2FE"/></linearGradient><linearGradient id="cj" x1="-813.712" x2="295.31" y1="1418.23" y2="2514.53" gradientUnits="userSpaceOnUse"><stop stop-color="#fff"/><stop offset=".524" stop-color="#D795FF"/><stop offset="1" stop-color="#7BC2FE"/></linearGradient><linearGradient id="ck" x1="-777.291" x2="305.533" y1="1395.99" y2="2466.51" gradientUnits="userSpaceOnUse"><stop stop-color="#fff"/><stop offset=".524" stop-color="#D795FF"/><stop offset="1" stop-color="#7BC2FE"/></linearGradient><linearGradient id="cl" x1="-741.523" x2="316.082" y1="1372.62" y2="2418.15" gradientUnits="userSpaceOnUse"><stop stop-color="#fff"/><stop offset=".524" stop-color="#D795FF"/><stop offset="1" stop-color="#7BC2FE"/></linearGradient><linearGradient id="cm" x1="-705.099" x2="326.308" y1="1350.39" y2="2370.12" gradientUnits="userSpaceOnUse"><stop stop-color="#fff"/><stop offset=".524" stop-color="#D795FF"/><stop offset="1" stop-color="#7BC2FE"/></linearGradient><linearGradient id="cn" x1="-669.328" x2="336.86" y1="1327.02" y2="2321.77" gradientUnits="userSpaceOnUse"><stop stop-color="#fff"/><stop offset=".524" stop-color="#D795FF"/><stop offset="1" stop-color="#7BC2FE"/></linearGradient><linearGradient id="co" x1="-632.91" x2="347.08" y1="1304.79" y2="2273.74" gradientUnits="userSpaceOnUse"><stop stop-color="#fff"/><stop offset=".524" stop-color="#D795FF"/><stop offset="1" stop-color="#7BC2FE"/></linearGradient><linearGradient id="cp" x1="-597.133" x2="357.638" y1="1281.42" y2="2225.39" gradientUnits="userSpaceOnUse"><stop stop-color="#fff"/><stop offset=".524" stop-color="#D795FF"/><stop offset="1" stop-color="#7BC2FE"/></linearGradient><linearGradient id="cq" x1="-560.598" x2="369.898" y1="1257.18" y2="2177.01" gradientUnits="userSpaceOnUse"><stop stop-color="#fff"/><stop offset=".524" stop-color="#D795FF"/><stop offset="1" stop-color="#7BC2FE"/></linearGradient><linearGradient id="cr" x1="-523.93" x2="380.403" y1="1234.71" y2="2128.71" gradientUnits="userSpaceOnUse"><stop stop-color="#fff"/><stop offset=".524" stop-color="#D795FF"/><stop offset="1" stop-color="#7BC2FE"/></linearGradient><linearGradient id="cs" x1="-488.412" x2="390.667" y1="1211.57" y2="2080.62" gradientUnits="userSpaceOnUse"><stop stop-color="#fff"/><stop offset=".524" stop-color="#D795FF"/><stop offset="1" stop-color="#7BC2FE"/></linearGradient><linearGradient id="ct" x1="-451.735" x2="401.181" y1="1189.11" y2="2032.33" gradientUnits="userSpaceOnUse"><stop stop-color="#fff"/><stop offset=".524" stop-color="#D795FF"/><stop offset="1" stop-color="#7BC2FE"/></linearGradient><linearGradient id="cu" x1="-416.22" x2="411.442" y1="1165.97" y2="1984.24" gradientUnits="userSpaceOnUse"><stop stop-color="#fff"/><stop offset=".524" stop-color="#D795FF"/><stop offset="1" stop-color="#7BC2FE"/></linearGradient><linearGradient id="cv" x1="-380.452" x2="421.991" y1="1142.6" y2="1935.88" gradientUnits="userSpaceOnUse"><stop stop-color="#fff"/><stop offset=".524" stop-color="#D795FF"/><stop offset="1" stop-color="#7BC2FE"/></linearGradient><linearGradient id="cw" x1="-344.028" x2="432.217" y1="1120.37" y2="1887.86" gradientUnits="userSpaceOnUse"><stop stop-color="#fff"/><stop offset=".524" stop-color="#D795FF"/><stop offset="1" stop-color="#7BC2FE"/></linearGradient><linearGradient id="cx" x1="-308.258" x2="442.768" y1="1097" y2="1839.5" gradientUnits="userSpaceOnUse"><stop stop-color="#fff"/><stop offset=".524" stop-color="#D795FF"/><stop offset="1" stop-color="#7BC2FE"/></linearGradient><linearGradient id="cy" x1="-270.735" x2="454.128" y1="1073.75" y2="1790.42" gradientUnits="userSpaceOnUse"><stop stop-color="#fff"/><stop offset=".524" stop-color="#D795FF"/><stop offset="1" stop-color="#7BC2FE"/></linearGradient><clipPath id="a"><path fill="#fff" d="M0 0h1600v2270H0z"/></clipPath><clipPath id="y"><path fill="#fff" d="M0 0h1600v2270H0z"/></clipPath><clipPath id="W"><path fill="#fff" d="M0 0h1600v2270H0z"/></clipPath><clipPath id="au"><path fill="#fff" d="M0 0h1600v2270H0z"/></clipPath><clipPath id="aS"><path fill="#fff" d="M0 0h1600v2270H0z"/></clipPath><clipPath id="bq"><path fill="#fff" d="M0 0h1600v2270H0z"/></clipPath><clipPath id="cg"><path fill="#fff" d="M0 0h1600v2270H0z"/></clipPath></defs></svg>